<svg xmlns="http://www.w3.org/2000/svg" xmlns:xlink="http://www.w3.org/1999/xlink" xmlns:lucid="lucid" width="2299.58" height="562"><g transform="translate(601.0000000433349 -558.9995983258666)" lucid:page-tab-id="0_0"><path d="M-1000-500h3000v2000h-3000z" fill="#fff"/><path d="M645 841.33c0 58-47 105-105 105s-105-47-105-105 47-105 105-105 105 47 105 105zM1146.92 841.33c0 58-47 105-105 105s-105-47-105-105 47-105 105-105 105 47 105 105z" stroke="#9391ff" stroke-width="2" fill="#dedeff"/><path d="M100 841.33c0 44.2-35.82 80-80 80s-80-35.8-80-80c0-44.18 35.82-80 80-80s80 35.82 80 80z" stroke="#282c33" stroke-width="2" fill="#fff"/><use xlink:href="#a" transform="matrix(1,0,0,1,-55,766.3333333333231) translate(45.37537037037037 63.520833333333336)"/><use xlink:href="#b" transform="matrix(1,0,0,1,-55,766.3333333333231) translate(56.48648148148148 95.52083333333334)"/><path d="M101.5 841.33h97" stroke="#3a414a" fill="none"/><path d="M101.5 841.8h-.5v-.95h.5zM199 841.8h-.5v-.94h.5z" stroke="#3a414a" stroke-width=".05" fill="#3a414a"/><path d="M401.5 841.33h41.12" stroke="#3a414a" fill="none"/><path d="M401.5 841.8h-.5v-.94h.5z" stroke="#3a414a" stroke-width=".05" fill="#3a414a"/><path d="M457.38 841.33l-14.26 4.64v-9.27z" stroke="#3a414a" fill="#3a414a"/><path d="M620 841.33c0 44.2-35.82 80-80 80s-80-35.8-80-80c0-44.18 35.82-80 80-80s80 35.82 80 80z" stroke="#282c33" stroke-width="2" fill="#fff"/><use xlink:href="#c" transform="matrix(1,0,0,1,465,766.3333333333231) translate(32.85685185185184 63.520833333333336)"/><use xlink:href="#b" transform="matrix(1,0,0,1,465,766.3333333333231) translate(56.48648148148148 95.52083333333334)"/><path d="M200 817.33a6 6 0 0 1 6-6h188a6 6 0 0 1 6 6v48a6 6 0 0 1-6 6H206a6 6 0 0 1-6-6z" stroke="#00c2a8" stroke-width="2" fill="#d7faf5"/><use xlink:href="#d" transform="matrix(1,0,0,1,205,816.3333333333231) translate(23.518518518518505 30.708333333333336)"/><use xlink:href="#e" transform="matrix(1,0,0,1,205,816.3333333333231) translate(113.22222222222221 30.708333333333336)"/><use xlink:href="#f" transform="matrix(1,0,0,1,205,816.3333333333231) translate(129.44444444444446 30.708333333333336)"/><path d="M881.5 841.33h63.03" stroke="#3a414a" fill="none"/><path d="M881.5 841.8h-.5v-.94h.5z" stroke="#3a414a" stroke-width=".05" fill="#3a414a"/><path d="M959.3 841.33l-14.27 4.64v-9.27z" stroke="#3a414a" fill="#3a414a"/><path d="M621.5 841.33h57" stroke="#3a414a" fill="none"/><path d="M621.5 841.8h-.5v-.95h.5zM679 841.8h-.5v-.94h.5z" stroke="#3a414a" stroke-width=".05" fill="#3a414a"/><path d="M1121.92 841.33c0 44.2-35.82 80-80 80-44.2 0-80-35.8-80-80 0-44.18 35.8-80 80-80 44.18 0 80 35.82 80 80z" stroke="#282c33" stroke-width="2" fill="#fff"/><use xlink:href="#g" transform="matrix(1,0,0,1,966.9166666666279,766.3333333333231) translate(35.004999999999995 63.520833333333336)"/><use xlink:href="#h" transform="matrix(1,0,0,1,966.9166666666279,766.3333333333231) translate(49.07907407407407 95.52083333333334)"/><path d="M680 817.33a6 6 0 0 1 6-6h188a6 6 0 0 1 6 6v48a6 6 0 0 1-6 6H686a6 6 0 0 1-6-6z" stroke="#00c2a8" stroke-width="2" fill="#d7faf5"/><use xlink:href="#d" transform="matrix(1,0,0,1,685,816.3333333333231) translate(23.518518518518505 30.708333333333336)"/><use xlink:href="#e" transform="matrix(1,0,0,1,685,816.3333333333231) translate(113.22222222222221 30.708333333333336)"/><use xlink:href="#i" transform="matrix(1,0,0,1,685,816.3333333333231) translate(129.44444444444446 30.708333333333336)"/><path d="M1377.58 632.17c0 39.85-32.3 72.16-72.16 72.16s-72.17-32.3-72.17-72.16 32.3-72.17 72.17-72.17c39.85 0 72.16 32.3 72.16 72.17z" stroke="#282c33" stroke-width="2" fill="#fff"/><use xlink:href="#j" transform="matrix(1,0,0,1,1238.25012173916,565) translate(40.65314814814814 55.083333333333336)"/><use xlink:href="#k" transform="matrix(1,0,0,1,1238.25012173916,565) translate(48.48648148148148 87.08333333333334)"/><path d="M1209.75 781.67a6 6 0 0 1 6-6h188a6 6 0 0 1 6 6V901a6 6 0 0 1-6 6h-188a6 6 0 0 1-6-6z" stroke="#635dff" stroke-width="2" fill="#dedeff"/><use xlink:href="#l" transform="matrix(1,0,0,1,1214.7500304346904,780.6666666666371) translate(12.111111111111114 67.08333333333334)"/><use xlink:href="#m" transform="matrix(1,0,0,1,1214.7500304346904,780.6666666666371) translate(75.81481481481482 67.08333333333334)"/><path d="M1123.42 841.33h68.95" stroke="#3a414a" fill="none"/><path d="M1123.43 841.8h-.53l.02-.45v-.5h.5z" stroke="#3a414a" stroke-width=".05" fill="#3a414a"/><path d="M1207.13 841.33l-14.26 4.64v-9.27z" stroke="#3a414a" fill="#3a414a"/><path d="M1305.42 705.83v52.45" stroke="#3a414a" fill="none"/><path d="M1305.4 705.33h.5v.52h-.96v-.53z" stroke="#3a414a" stroke-width=".05" fill="#3a414a"/><path d="M1305.42 773.05l-4.64-14.27h9.27z" stroke="#3a414a" fill="#3a414a"/><path d="M1411.25 841.33h68.95" stroke="#3a414a" fill="none"/><path d="M1411.26 841.8h-.5v-.94h.5z" stroke="#3a414a" stroke-width=".05" fill="#3a414a"/><path d="M1494.96 841.33l-14.26 4.64v-9.27z" stroke="#3a414a" fill="#3a414a"/><path d="M1497.58 781.67a6 6 0 0 1 6-6h188a6 6 0 0 1 6 6V901a6 6 0 0 1-6 6h-188a6 6 0 0 1-6-6z" stroke="#008a0e" stroke-width="2" fill="#c3f7c8"/><use xlink:href="#l" transform="matrix(1,0,0,1,1502.5833942028694,780.6666666666371) translate(30.111111111111114 51.833333333333336)"/><use xlink:href="#n" transform="matrix(1,0,0,1,1502.5833942028694,780.6666666666371) translate(93.81481481481482 51.833333333333336)"/><use xlink:href="#l" transform="matrix(1,0,0,1,1502.5833942028694,780.6666666666371) translate(12.1111111111111 83.83333333333334)"/><use xlink:href="#o" transform="matrix(1,0,0,1,1502.5833942028694,780.6666666666371) translate(75.81481481481481 83.83333333333334)"/><path d="M1597.58 908.5V1064a6 6 0 0 1-6 6h-543.66a6 6 0 0 1-6-6V938.72" stroke="#3a414a" fill="none"/><path d="M1598.06 908.5h-.95v-.5h.96z" stroke="#3a414a" stroke-width=".05" fill="#3a414a"/><path d="M1041.92 923.95l4.63 14.27h-9.27z" stroke="#3a414a" fill="#3a414a"/><path d="M-340 606a6 6 0 0 1 6-6h154.24a6 6 0 0 1 6 6v75a6 6 0 0 1-6 6H-334a6 6 0 0 1-6-6z" stroke="#635dff" stroke-width="2" fill="#dedeff"/><use xlink:href="#p" transform="matrix(1,0,0,1,-335,605) translate(21.611111111111114 42.989583333333336)"/><path d="M540 922.83V1064a6 6 0 0 1-6 6H417.38" stroke="#3a414a" fill="none"/><path d="M540 922.33h.48v.52h-.96v-.53z" stroke="#3a414a" stroke-width=".05" fill="#3a414a"/><path d="M402.62 1070l14.26-4.63v9.27z" stroke="#3a414a" fill="#3a414a"/><path d="M198.5 1070H26a6 6 0 0 1-6-6V938.72" stroke="#3a414a" fill="none"/><path d="M199 1070.47h-.5v-.94h.5z" stroke="#3a414a" stroke-width=".05" fill="#3a414a"/><path d="M20 923.95l4.64 14.27h-9.28z" stroke="#3a414a" fill="#3a414a"/><path d="M680 1026a6 6 0 0 1 6-6h188a6 6 0 0 1 6 6v88a6 6 0 0 1-6 6H686a6 6 0 0 1-6-6z" stroke="#1071e5" stroke-width="2" fill="#cfe4ff"/><use xlink:href="#q" transform="matrix(1,0,0,1,685,1025) translate(39.55555555555556 35.395833333333336)"/><use xlink:href="#r" transform="matrix(1,0,0,1,685,1025) translate(43.962962962962955 67.39583333333334)"/><path d="M20 922.83V1064a6 6 0 0 1-6 6h-264.88a6 6 0 0 1-6-6V704.38" stroke="#3a414a" fill="none"/><path d="M20 922.33h.48v.52h-.96v-.53z" stroke="#3a414a" stroke-width=".05" fill="#3a414a"/><path d="M-256.88 689.62l4.64 14.26h-9.27z" stroke="#3a414a" fill="#3a414a"/><path d="M200 1026a6 6 0 0 1 6-6h188a6 6 0 0 1 6 6v88a6 6 0 0 1-6 6H206a6 6 0 0 1-6-6z" stroke="#1071e5" stroke-width="2" fill="#cfe4ff"/><use xlink:href="#q" transform="matrix(1,0,0,1,205,1025) translate(39.55555555555556 35.395833333333336)"/><use xlink:href="#r" transform="matrix(1,0,0,1,205,1025) translate(43.962962962962955 67.39583333333334)"/><path d="M-100 606a6 6 0 0 1 6-6H94a6 6 0 0 1 6 6v75a6 6 0 0 1-6 6H-94a6 6 0 0 1-6-6z" stroke="#1071e5" stroke-width="2" fill="#cfe4ff"/><use xlink:href="#s" transform="matrix(1,0,0,1,-95,605) translate(47.703703703703695 28.552083333333336)"/><use xlink:href="#t" transform="matrix(1,0,0,1,-95,605) translate(21.074074074074076 60.552083333333336)"/><path d="M-172.26 643.5h54.88" stroke="#3a414a" fill="none"/><path d="M-172.24 643.98h-.52V643h.52z" stroke="#3a414a" stroke-width=".05" fill="#3a414a"/><path d="M-102.62 643.5l-14.26 4.63v-9.26z" stroke="#3a414a" fill="#3a414a"/><path d="M101.5 643.5h81.12" stroke="#3a414a" fill="none"/><path d="M101.5 643.98h-.5V643h.5z" stroke="#3a414a" stroke-width=".05" fill="#3a414a"/><path d="M197.38 643.5l-14.26 4.63v-9.26z" stroke="#3a414a" fill="#3a414a"/><path d="M300 688.5v105.45" stroke="#3a414a" fill="none"/><path d="M300.48 688.5h-.96v-.5h.96z" stroke="#3a414a" stroke-width=".05" fill="#3a414a"/><path d="M300 808.7l-4.63-14.25h9.26z" stroke="#3a414a" fill="#3a414a"/><path d="M780 688.5v105.45" stroke="#3a414a" fill="none"/><path d="M780.48 688.5h-.96v-.5h.96z" stroke="#3a414a" stroke-width=".05" fill="#3a414a"/><path d="M780 808.7l-4.63-14.25h9.26z" stroke="#3a414a" fill="#3a414a"/><path d="M101.5 643.5h561.12" stroke="#3a414a" fill="none"/><path d="M101.5 643.98h-.5V643h.5z" stroke="#3a414a" stroke-width=".05" fill="#3a414a"/><path d="M677.38 643.5l-14.26 4.63v-9.26z" stroke="#3a414a" fill="#3a414a"/><path d="M200 606a6 6 0 0 1 6-6h188a6 6 0 0 1 6 6v75a6 6 0 0 1-6 6H206a6 6 0 0 1-6-6z" stroke="#1071e5" stroke-width="2" fill="#cfe4ff"/><g><use xlink:href="#u" transform="matrix(1,0,0,1,205,605) translate(52.074074074074076 28.552083333333336)"/><use xlink:href="#v" transform="matrix(1,0,0,1,205,605) translate(53.85185185185185 60.552083333333336)"/></g><path d="M680 606a6 6 0 0 1 6-6h188a6 6 0 0 1 6 6v75a6 6 0 0 1-6 6H686a6 6 0 0 1-6-6z" stroke="#1071e5" stroke-width="2" fill="#cfe4ff"/><g><use xlink:href="#u" transform="matrix(1,0,0,1,685,605) translate(52.074074074074076 28.552083333333336)"/><use xlink:href="#v" transform="matrix(1,0,0,1,685,605) translate(53.85185185185185 60.552083333333336)"/></g><path d="M1041.92 922.83V1064a6 6 0 0 1-6 6H897.38" stroke="#3a414a" fill="none"/><path d="M1041.9 922.33h.5v.52h-.96v-.53z" stroke="#3a414a" stroke-width=".05" fill="#3a414a"/><path d="M882.62 1070l14.26-4.63v9.27z" stroke="#3a414a" fill="#3a414a"/><path d="M678.5 1070H546a6 6 0 0 1-6-6V938.72" stroke="#3a414a" fill="none"/><path d="M679 1070.47h-.5v-.94h.5z" stroke="#3a414a" stroke-width=".05" fill="#3a414a"/><path d="M540 923.95l4.63 14.27h-9.26z" stroke="#3a414a" fill="#3a414a"/><path d="M-79.5 841.33H-398" stroke="#3a414a" stroke-width="2" fill="none"/><path d="M-64.24 841.33l-14.26 4.64v-9.27z" stroke="#3a414a" stroke-width="2" fill="#3a414a"/><path d="M-397.97 842.3H-399v-1.94h1.03z" stroke="#3a414a" stroke-width=".05" fill="#3a414a"/><path d="M-600 796a6 6 0 0 1 6-6h188a6 6 0 0 1 6 6v90.67a6 6 0 0 1-6 6h-188a6 6 0 0 1-6-6z" stroke="#00c2a8" stroke-width="2" fill="#d7faf5"/><g><use xlink:href="#w" transform="matrix(1,0,0,1,-595,794.9999999999557) translate(47.48148148148148 35.864583333333336)"/><use xlink:href="#x" transform="matrix(1,0,0,1,-595,794.9999999999557) translate(46.925925925925924 67.86458333333334)"/></g><defs><path fill="#3a414a" d="M33 0v-248h34V0H33" id="y"/><path fill="#3a414a" d="M117-194c89-4 53 116 60 194h-32v-121c0-31-8-49-39-48C34-167 62-67 57 0H25l-1-190h30c1 10-1 24 2 32 11-22 29-35 61-36" id="z"/><path fill="#3a414a" d="M115-194c55 1 70 41 70 98S169 2 115 4C84 4 66-9 55-30l1 105H24l-1-265h31l2 30c10-21 28-34 59-34zm-8 174c40 0 45-34 45-75s-6-73-45-74c-42 0-51 32-51 76 0 43 10 73 51 73" id="A"/><path fill="#3a414a" d="M84 4C-5 8 30-112 23-190h32v120c0 31 7 50 39 49 72-2 45-101 50-169h31l1 190h-30c-1-10 1-25-2-33-11 22-28 36-60 37" id="B"/><path fill="#3a414a" d="M59-47c-2 24 18 29 38 22v24C64 9 27 4 27-40v-127H5v-23h24l9-43h21v43h35v23H59v120" id="C"/><g id="a"><use transform="matrix(0.07407407407407408,0,0,0.07407407407407408,0,0)" xlink:href="#y"/><use transform="matrix(0.07407407407407408,0,0,0.07407407407407408,7.407407407407408,0)" xlink:href="#z"/><use transform="matrix(0.07407407407407408,0,0,0.07407407407407408,22.222222222222225,0)" xlink:href="#A"/><use transform="matrix(0.07407407407407408,0,0,0.07407407407407408,37.03703703703704,0)" xlink:href="#B"/><use transform="matrix(0.07407407407407408,0,0,0.07407407407407408,51.85185185185186,0)" xlink:href="#C"/></g><path fill="#3a414a" d="M101-251c68 0 85 55 85 127S166 4 100 4C33 4 14-52 14-124c0-73 17-127 87-127zm-1 229c47 0 54-49 54-102s-4-102-53-102c-51 0-55 48-55 102 0 53 5 102 54 102" id="D"/><path fill="#3a414a" d="M33 0v-38h34V0H33" id="E"/><path fill="#3a414a" d="M64 0c3-98 48-159 88-221H18v-27h164v26C143-157 98-101 97 0H64" id="F"/><g id="b"><use transform="matrix(0.07407407407407408,0,0,0.07407407407407408,0,0)" xlink:href="#D"/><use transform="matrix(0.07407407407407408,0,0,0.07407407407407408,14.814814814814817,0)" xlink:href="#E"/><use transform="matrix(0.07407407407407408,0,0,0.07407407407407408,22.222222222222225,0)" xlink:href="#F"/></g><path fill="#3a414a" d="M197 0v-115H63V0H30v-248h33v105h134v-105h34V0h-34" id="G"/><path fill="#3a414a" d="M24-231v-30h32v30H24zM24 0v-190h32V0H24" id="H"/><path fill="#3a414a" d="M85-194c31 0 48 13 60 33l-1-100h32l1 261h-30c-2-10 0-23-3-31C134-8 116 4 85 4 32 4 16-35 15-94c0-66 23-100 70-100zm9 24c-40 0-46 34-46 75 0 40 6 74 45 74 42 0 51-32 51-76 0-42-9-74-50-73" id="I"/><path fill="#3a414a" d="M100-194c63 0 86 42 84 106H49c0 40 14 67 53 68 26 1 43-12 49-29l28 8c-11 28-37 45-77 45C44 4 14-33 15-96c1-61 26-98 85-98zm52 81c6-60-76-77-97-28-3 7-6 17-6 28h103" id="J"/><g id="c"><use transform="matrix(0.07407407407407408,0,0,0.07407407407407408,0,0)" xlink:href="#G"/><use transform="matrix(0.07407407407407408,0,0,0.07407407407407408,19.185185185185187,0)" xlink:href="#H"/><use transform="matrix(0.07407407407407408,0,0,0.07407407407407408,25.037037037037035,0)" xlink:href="#I"/><use transform="matrix(0.07407407407407408,0,0,0.07407407407407408,39.851851851851855,0)" xlink:href="#I"/><use transform="matrix(0.07407407407407408,0,0,0.07407407407407408,54.66666666666667,0)" xlink:href="#J"/><use transform="matrix(0.07407407407407408,0,0,0.07407407407407408,69.4814814814815,0)" xlink:href="#z"/></g><path fill="#3a414a" d="M266 0h-40l-56-210L115 0H75L2-248h35L96-30l15-64 43-154h32l59 218 59-218h35" id="K"/><path fill="#3a414a" d="M177-190C167-65 218 103 67 71c-23-6-38-20-44-43l32-5c15 47 100 32 89-28v-30C133-14 115 1 83 1 29 1 15-40 15-95c0-56 16-97 71-98 29-1 48 16 59 35 1-10 0-23 2-32h30zM94-22c36 0 50-32 50-73 0-42-14-75-50-75-39 0-46 34-46 75s6 73 46 73" id="L"/><path fill="#3a414a" d="M106-169C34-169 62-67 57 0H25v-261h32l-1 103c12-21 28-36 61-36 89 0 53 116 60 194h-32v-121c2-32-8-49-39-48" id="M"/><g id="d"><use transform="matrix(0.07407407407407408,0,0,0.07407407407407408,0,0)" xlink:href="#K"/><use transform="matrix(0.07407407407407408,0,0,0.07407407407407408,24.592592592592595,0)" xlink:href="#J"/><use transform="matrix(0.07407407407407408,0,0,0.07407407407407408,39.40740740740741,0)" xlink:href="#H"/><use transform="matrix(0.07407407407407408,0,0,0.07407407407407408,45.25925925925927,0)" xlink:href="#L"/><use transform="matrix(0.07407407407407408,0,0,0.07407407407407408,60.07407407407408,0)" xlink:href="#M"/><use transform="matrix(0.07407407407407408,0,0,0.07407407407407408,74.8888888888889,0)" xlink:href="#C"/></g><path fill="#3a414a" d="M16-82v-28h88v28H16" id="N"/><use transform="matrix(0.07407407407407408,0,0,0.07407407407407408,0,0)" xlink:href="#N" id="e"/><path fill="#3a414a" d="M27 0v-27h64v-190l-56 39v-29l58-41h29v221h61V0H27" id="O"/><g id="f"><use transform="matrix(0.07407407407407408,0,0,0.07407407407407408,0,0)" xlink:href="#O"/><use transform="matrix(0.07407407407407408,0,0,0.07407407407407408,14.814814814814817,0)" xlink:href="#E"/><use transform="matrix(0.07407407407407408,0,0,0.07407407407407408,22.222222222222225,0)" xlink:href="#D"/></g><path fill="#3a414a" d="M140-251c81 0 123 46 123 126C263-46 219 4 140 4 59 4 17-45 17-125s42-126 123-126zm0 227c63 0 89-41 89-101s-29-99-89-99c-61 0-89 39-89 99S79-25 140-24" id="P"/><g id="g"><use transform="matrix(0.07407407407407408,0,0,0.07407407407407408,0,0)" xlink:href="#P"/><use transform="matrix(0.07407407407407408,0,0,0.07407407407407408,20.740740740740744,0)" xlink:href="#B"/><use transform="matrix(0.07407407407407408,0,0,0.07407407407407408,35.55555555555556,0)" xlink:href="#C"/><use transform="matrix(0.07407407407407408,0,0,0.07407407407407408,42.96296296296296,0)" xlink:href="#A"/><use transform="matrix(0.07407407407407408,0,0,0.07407407407407408,57.77777777777778,0)" xlink:href="#B"/><use transform="matrix(0.07407407407407408,0,0,0.07407407407407408,72.5925925925926,0)" xlink:href="#C"/></g><path fill="#3a414a" d="M126-127c33 6 58 20 58 59 0 88-139 92-164 29-3-8-5-16-6-25l32-3c6 27 21 44 54 44 32 0 52-15 52-46 0-38-36-46-79-43v-28c39 1 72-4 72-42 0-27-17-43-46-43-28 0-47 15-49 41l-32-3c6-42 35-63 81-64 48-1 79 21 79 65 0 36-21 52-52 59" id="Q"/><path fill="#3a414a" d="M54-142c48-35 137-8 131 61C196 18 31 33 14-55l32-4c7 23 22 37 52 37 35-1 51-22 54-58 4-55-73-65-99-34H22l8-134h141v27H59" id="R"/><g id="h"><use transform="matrix(0.07407407407407408,0,0,0.07407407407407408,0,0)" xlink:href="#D"/><use transform="matrix(0.07407407407407408,0,0,0.07407407407407408,14.814814814814817,0)" xlink:href="#E"/><use transform="matrix(0.07407407407407408,0,0,0.07407407407407408,22.222222222222225,0)" xlink:href="#Q"/><use transform="matrix(0.07407407407407408,0,0,0.07407407407407408,37.03703703703704,0)" xlink:href="#R"/></g><g id="i"><use transform="matrix(0.07407407407407408,0,0,0.07407407407407408,0,0)" xlink:href="#D"/><use transform="matrix(0.07407407407407408,0,0,0.07407407407407408,14.814814814814817,0)" xlink:href="#E"/><use transform="matrix(0.07407407407407408,0,0,0.07407407407407408,22.222222222222225,0)" xlink:href="#R"/></g><path fill="#3a414a" d="M127-220V0H93v-220H8v-28h204v28h-85" id="S"/><path fill="#3a414a" d="M114-163C36-179 61-72 57 0H25l-1-190h30c1 12-1 29 2 39 6-27 23-49 58-41v29" id="T"/><g id="j"><use transform="matrix(0.07407407407407408,0,0,0.07407407407407408,0,0)" xlink:href="#S"/><use transform="matrix(0.07407407407407408,0,0,0.07407407407407408,15.259259259259261,0)" xlink:href="#T"/><use transform="matrix(0.07407407407407408,0,0,0.07407407407407408,24.074074074074076,0)" xlink:href="#B"/><use transform="matrix(0.07407407407407408,0,0,0.07407407407407408,38.88888888888889,0)" xlink:href="#J"/></g><g id="k"><use transform="matrix(0.07407407407407408,0,0,0.07407407407407408,0,0)" xlink:href="#D"/><use transform="matrix(0.07407407407407408,0,0,0.07407407407407408,14.814814814814817,0)" xlink:href="#E"/><use transform="matrix(0.07407407407407408,0,0,0.07407407407407408,22.222222222222225,0)" xlink:href="#R"/></g><path fill="#3a414a" d="M30 0v-248h33v221h125V0H30" id="U"/><path fill="#3a414a" d="M100-194c62-1 85 37 85 99 1 63-27 99-86 99S16-35 15-95c0-66 28-99 85-99zM99-20c44 1 53-31 53-75 0-43-8-75-51-75s-53 32-53 75 10 74 51 75" id="V"/><path fill="#3a414a" d="M135-143c-3-34-86-38-87 0 15 53 115 12 119 90S17 21 10-45l28-5c4 36 97 45 98 0-10-56-113-15-118-90-4-57 82-63 122-42 12 7 21 19 24 35" id="W"/><g id="l"><use transform="matrix(0.07407407407407408,0,0,0.07407407407407408,0,0)" xlink:href="#U"/><use transform="matrix(0.07407407407407408,0,0,0.07407407407407408,14.814814814814817,0)" xlink:href="#V"/><use transform="matrix(0.07407407407407408,0,0,0.07407407407407408,29.629629629629633,0)" xlink:href="#W"/><use transform="matrix(0.07407407407407408,0,0,0.07407407407407408,42.96296296296297,0)" xlink:href="#W"/></g><path fill="#3a414a" d="M63-220v92h138v28H63V0H30v-248h175v28H63" id="X"/><path fill="#3a414a" d="M96-169c-40 0-48 33-48 73s9 75 48 75c24 0 41-14 43-38l32 2c-6 37-31 61-74 61-59 0-76-41-82-99-10-93 101-131 147-64 4 7 5 14 7 22l-32 3c-4-21-16-35-41-35" id="Y"/><g id="m"><use transform="matrix(0.07407407407407408,0,0,0.07407407407407408,0,0)" xlink:href="#X"/><use transform="matrix(0.07407407407407408,0,0,0.07407407407407408,16.222222222222225,0)" xlink:href="#B"/><use transform="matrix(0.07407407407407408,0,0,0.07407407407407408,31.03703703703704,0)" xlink:href="#z"/><use transform="matrix(0.07407407407407408,0,0,0.07407407407407408,45.851851851851855,0)" xlink:href="#Y"/><use transform="matrix(0.07407407407407408,0,0,0.07407407407407408,59.185185185185205,0)" xlink:href="#C"/><use transform="matrix(0.07407407407407408,0,0,0.07407407407407408,66.59259259259261,0)" xlink:href="#H"/><use transform="matrix(0.07407407407407408,0,0,0.07407407407407408,72.44444444444446,0)" xlink:href="#V"/><use transform="matrix(0.07407407407407408,0,0,0.07407407407407408,87.25925925925927,0)" xlink:href="#z"/></g><path fill="#3a414a" d="M137 0h-34L2-248h35l83 218 83-218h36" id="Z"/><path fill="#3a414a" d="M141-36C126-15 110 5 73 4 37 3 15-17 15-53c-1-64 63-63 125-63 3-35-9-54-41-54-24 1-41 7-42 31l-33-3c5-37 33-52 76-52 45 0 72 20 72 64v82c-1 20 7 32 28 27v20c-31 9-61-2-59-35zM48-53c0 20 12 33 32 33 41-3 63-29 60-74-43 2-92-5-92 41" id="aa"/><path fill="#3a414a" d="M24 0v-261h32V0H24" id="ab"/><g id="n"><use transform="matrix(0.07407407407407408,0,0,0.07407407407407408,0,0)" xlink:href="#Z"/><use transform="matrix(0.07407407407407408,0,0,0.07407407407407408,15.777777777777779,0)" xlink:href="#aa"/><use transform="matrix(0.07407407407407408,0,0,0.07407407407407408,30.592592592592595,0)" xlink:href="#ab"/><use transform="matrix(0.07407407407407408,0,0,0.07407407407407408,36.44444444444445,0)" xlink:href="#B"/><use transform="matrix(0.07407407407407408,0,0,0.07407407407407408,51.25925925925927,0)" xlink:href="#J"/></g><path fill="#3a414a" d="M143 4C61 4 22-44 18-125c-5-107 100-154 193-111 17 8 29 25 37 43l-32 9c-13-25-37-40-76-40-61 0-88 39-88 99 0 61 29 100 91 101 35 0 62-11 79-27v-45h-74v-28h105v86C228-13 192 4 143 4" id="ac"/><g id="o"><use transform="matrix(0.07407407407407408,0,0,0.07407407407407408,0,0)" xlink:href="#ac"/><use transform="matrix(0.07407407407407408,0,0,0.07407407407407408,20.740740740740744,0)" xlink:href="#T"/><use transform="matrix(0.07407407407407408,0,0,0.07407407407407408,29.55555555555556,0)" xlink:href="#aa"/><use transform="matrix(0.07407407407407408,0,0,0.07407407407407408,44.37037037037039,0)" xlink:href="#I"/><use transform="matrix(0.07407407407407408,0,0,0.07407407407407408,59.185185185185205,0)" xlink:href="#H"/><use transform="matrix(0.07407407407407408,0,0,0.07407407407407408,65.03703703703705,0)" xlink:href="#J"/><use transform="matrix(0.07407407407407408,0,0,0.07407407407407408,79.85185185185188,0)" xlink:href="#z"/><use transform="matrix(0.07407407407407408,0,0,0.07407407407407408,94.66666666666669,0)" xlink:href="#C"/></g><path fill="#3a414a" d="M210-169c-67 3-38 105-44 169h-31v-121c0-29-5-50-35-48C34-165 62-65 56 0H25l-1-190h30c1 10-1 24 2 32 10-44 99-50 107 0 11-21 27-35 58-36 85-2 47 119 55 194h-31v-121c0-29-5-49-35-48" id="ad"/><g id="p"><use transform="matrix(0.07407407407407408,0,0,0.07407407407407408,0,0)" xlink:href="#P"/><use transform="matrix(0.07407407407407408,0,0,0.07407407407407408,20.740740740740744,0)" xlink:href="#A"/><use transform="matrix(0.07407407407407408,0,0,0.07407407407407408,35.55555555555556,0)" xlink:href="#C"/><use transform="matrix(0.07407407407407408,0,0,0.07407407407407408,42.96296296296296,0)" xlink:href="#H"/><use transform="matrix(0.07407407407407408,0,0,0.07407407407407408,48.81481481481481,0)" xlink:href="#ad"/><use transform="matrix(0.07407407407407408,0,0,0.07407407407407408,70.96296296296296,0)" xlink:href="#H"/><use transform="matrix(0.07407407407407408,0,0,0.07407407407407408,76.81481481481481,0)" xlink:href="#W"/><use transform="matrix(0.07407407407407408,0,0,0.07407407407407408,90.14814814814817,0)" xlink:href="#J"/><use transform="matrix(0.07407407407407408,0,0,0.07407407407407408,104.96296296296296,0)" xlink:href="#T"/></g><path fill="#3a414a" d="M212-179c-10-28-35-45-73-45-59 0-87 40-87 99 0 60 29 101 89 101 43 0 62-24 78-52l27 14C228-24 195 4 139 4 59 4 22-46 18-125c-6-104 99-153 187-111 19 9 31 26 39 46" id="ae"/><g id="q"><use transform="matrix(0.07407407407407408,0,0,0.07407407407407408,0,0)" xlink:href="#ae"/><use transform="matrix(0.07407407407407408,0,0,0.07407407407407408,19.185185185185187,0)" xlink:href="#aa"/><use transform="matrix(0.07407407407407408,0,0,0.07407407407407408,34,0)" xlink:href="#ab"/><use transform="matrix(0.07407407407407408,0,0,0.07407407407407408,39.851851851851855,0)" xlink:href="#Y"/><use transform="matrix(0.07407407407407408,0,0,0.07407407407407408,53.18518518518519,0)" xlink:href="#B"/><use transform="matrix(0.07407407407407408,0,0,0.07407407407407408,68,0)" xlink:href="#ab"/><use transform="matrix(0.07407407407407408,0,0,0.07407407407407408,73.85185185185185,0)" xlink:href="#aa"/><use transform="matrix(0.07407407407407408,0,0,0.07407407407407408,88.66666666666666,0)" xlink:href="#C"/><use transform="matrix(0.07407407407407408,0,0,0.07407407407407408,96.07407407407408,0)" xlink:href="#J"/></g><g id="r"><use transform="matrix(0.07407407407407408,0,0,0.07407407407407408,0,0)" xlink:href="#ac"/><use transform="matrix(0.07407407407407408,0,0,0.07407407407407408,20.740740740740744,0)" xlink:href="#T"/><use transform="matrix(0.07407407407407408,0,0,0.07407407407407408,29.55555555555556,0)" xlink:href="#aa"/><use transform="matrix(0.07407407407407408,0,0,0.07407407407407408,44.37037037037039,0)" xlink:href="#I"/><use transform="matrix(0.07407407407407408,0,0,0.07407407407407408,59.185185185185205,0)" xlink:href="#H"/><use transform="matrix(0.07407407407407408,0,0,0.07407407407407408,65.03703703703705,0)" xlink:href="#J"/><use transform="matrix(0.07407407407407408,0,0,0.07407407407407408,79.85185185185188,0)" xlink:href="#z"/><use transform="matrix(0.07407407407407408,0,0,0.07407407407407408,94.66666666666669,0)" xlink:href="#C"/></g><path fill="#3a414a" d="M30-248c87 1 191-15 191 75 0 78-77 80-158 76V0H30v-248zm33 125c57 0 124 11 124-50 0-59-68-47-124-48v98" id="af"/><path fill="#3a414a" d="M101-234c-31-9-42 10-38 44h38v23H63V0H32v-167H5v-23h27c-7-52 17-82 69-68v24" id="ag"/><g id="s"><use transform="matrix(0.07407407407407408,0,0,0.07407407407407408,0,0)" xlink:href="#af"/><use transform="matrix(0.07407407407407408,0,0,0.07407407407407408,17.77777777777778,0)" xlink:href="#J"/><use transform="matrix(0.07407407407407408,0,0,0.07407407407407408,32.592592592592595,0)" xlink:href="#T"/><use transform="matrix(0.07407407407407408,0,0,0.07407407407407408,41.40740740740741,0)" xlink:href="#ag"/><use transform="matrix(0.07407407407407408,0,0,0.07407407407407408,48.814814814814824,0)" xlink:href="#V"/><use transform="matrix(0.07407407407407408,0,0,0.07407407407407408,63.62962962962964,0)" xlink:href="#T"/><use transform="matrix(0.07407407407407408,0,0,0.07407407407407408,72.44444444444446,0)" xlink:href="#ad"/></g><g id="t"><use transform="matrix(0.07407407407407408,0,0,0.07407407407407408,0,0)" xlink:href="#P"/><use transform="matrix(0.07407407407407408,0,0,0.07407407407407408,20.740740740740744,0)" xlink:href="#A"/><use transform="matrix(0.07407407407407408,0,0,0.07407407407407408,35.55555555555556,0)" xlink:href="#C"/><use transform="matrix(0.07407407407407408,0,0,0.07407407407407408,42.96296296296296,0)" xlink:href="#H"/><use transform="matrix(0.07407407407407408,0,0,0.07407407407407408,48.81481481481481,0)" xlink:href="#ad"/><use transform="matrix(0.07407407407407408,0,0,0.07407407407407408,70.96296296296296,0)" xlink:href="#H"/><use transform="matrix(0.07407407407407408,0,0,0.07407407407407408,76.81481481481481,0)" xlink:href="#W"/><use transform="matrix(0.07407407407407408,0,0,0.07407407407407408,90.14814814814817,0)" xlink:href="#aa"/><use transform="matrix(0.07407407407407408,0,0,0.07407407407407408,104.96296296296296,0)" xlink:href="#C"/><use transform="matrix(0.07407407407407408,0,0,0.07407407407407408,112.37037037037037,0)" xlink:href="#H"/><use transform="matrix(0.07407407407407408,0,0,0.07407407407407408,118.22222222222221,0)" xlink:href="#V"/><use transform="matrix(0.07407407407407408,0,0,0.07407407407407408,133.03703703703704,0)" xlink:href="#z"/></g><path fill="#3a414a" d="M232-93c-1 65-40 97-104 97C67 4 28-28 28-90v-158h33c8 89-33 224 67 224 102 0 64-133 71-224h33v155" id="ah"/><g id="u"><use transform="matrix(0.07407407407407408,0,0,0.07407407407407408,0,0)" xlink:href="#ah"/><use transform="matrix(0.07407407407407408,0,0,0.07407407407407408,19.185185185185187,0)" xlink:href="#A"/><use transform="matrix(0.07407407407407408,0,0,0.07407407407407408,34,0)" xlink:href="#I"/><use transform="matrix(0.07407407407407408,0,0,0.07407407407407408,48.81481481481481,0)" xlink:href="#aa"/><use transform="matrix(0.07407407407407408,0,0,0.07407407407407408,63.629629629629626,0)" xlink:href="#C"/><use transform="matrix(0.07407407407407408,0,0,0.07407407407407408,71.03703703703704,0)" xlink:href="#J"/></g><g id="v"><use transform="matrix(0.07407407407407408,0,0,0.07407407407407408,0,0)" xlink:href="#K"/><use transform="matrix(0.07407407407407408,0,0,0.07407407407407408,24.592592592592595,0)" xlink:href="#J"/><use transform="matrix(0.07407407407407408,0,0,0.07407407407407408,39.40740740740741,0)" xlink:href="#H"/><use transform="matrix(0.07407407407407408,0,0,0.07407407407407408,45.25925925925927,0)" xlink:href="#L"/><use transform="matrix(0.07407407407407408,0,0,0.07407407407407408,60.07407407407408,0)" xlink:href="#M"/><use transform="matrix(0.07407407407407408,0,0,0.07407407407407408,74.8888888888889,0)" xlink:href="#C"/></g><g id="w"><use transform="matrix(0.07407407407407408,0,0,0.07407407407407408,0,0)" xlink:href="#S"/><use transform="matrix(0.07407407407407408,0,0,0.07407407407407408,15.259259259259261,0)" xlink:href="#T"/><use transform="matrix(0.07407407407407408,0,0,0.07407407407407408,24.074074074074076,0)" xlink:href="#aa"/><use transform="matrix(0.07407407407407408,0,0,0.07407407407407408,38.88888888888889,0)" xlink:href="#H"/><use transform="matrix(0.07407407407407408,0,0,0.07407407407407408,44.74074074074075,0)" xlink:href="#z"/><use transform="matrix(0.07407407407407408,0,0,0.07407407407407408,59.555555555555564,0)" xlink:href="#H"/><use transform="matrix(0.07407407407407408,0,0,0.07407407407407408,65.40740740740742,0)" xlink:href="#z"/><use transform="matrix(0.07407407407407408,0,0,0.07407407407407408,80.22222222222223,0)" xlink:href="#L"/></g><g id="x"><use transform="matrix(0.07407407407407408,0,0,0.07407407407407408,0,0)" xlink:href="#y"/><use transform="matrix(0.07407407407407408,0,0,0.07407407407407408,7.407407407407408,0)" xlink:href="#C"/><use transform="matrix(0.07407407407407408,0,0,0.07407407407407408,14.814814814814817,0)" xlink:href="#J"/><use transform="matrix(0.07407407407407408,0,0,0.07407407407407408,29.629629629629633,0)" xlink:href="#T"/><use transform="matrix(0.07407407407407408,0,0,0.07407407407407408,38.44444444444445,0)" xlink:href="#aa"/><use transform="matrix(0.07407407407407408,0,0,0.07407407407407408,53.25925925925927,0)" xlink:href="#C"/><use transform="matrix(0.07407407407407408,0,0,0.07407407407407408,60.66666666666667,0)" xlink:href="#H"/><use transform="matrix(0.07407407407407408,0,0,0.07407407407407408,66.51851851851852,0)" xlink:href="#V"/><use transform="matrix(0.07407407407407408,0,0,0.07407407407407408,81.33333333333334,0)" xlink:href="#z"/></g></defs></g></svg>