<svg xmlns="http://www.w3.org/2000/svg" xmlns:xlink="http://www.w3.org/1999/xlink" xmlns:lucid="lucid" width="1062.83" height="656.42"><g transform="translate(14.33339789343257 -1938.9999354399395)" lucid:page-tab-id="0_0"><path d="M-500-500h2000v3500H-500z" fill="#fff"/><path d="M651.67 2141.58c0 58-47 105-105 105s-105-47-105-105 47-105 105-105 105 47 105 105z" stroke="#9391ff" stroke-width="2" fill="#dedeff"/><path d="M146.67 2020c0 44.18-35.82 80-80 80-44.2 0-80-35.82-80-80s35.8-80 80-80c44.18 0 80 35.82 80 80z" stroke="#282c33" stroke-width="2" fill="#fff"/><use xlink:href="#a" transform="matrix(1,0,0,1,-8.333333333372138,1945) translate(56.48148148148148 82.27083333333334)"/><path d="M145.68 2040.04l304.37 96.6" stroke="#3a414a" fill="none"/><path d="M145.83 2039.6l-.3.9-.45-.15.07-.25.15-.67z" stroke="#3a414a" stroke-width=".05" fill="#3a414a"/><path d="M464.12 2141.1l-15 .1 2.8-8.84z" stroke="#3a414a" fill="#3a414a"/><path d="M626.67 2141.58c0 44.18-35.82 80-80 80-44.2 0-80-35.82-80-80s35.8-80 80-80c44.18 0 80 35.82 80 80z" stroke="#282c33" stroke-width="2" fill="#fff"/><use xlink:href="#b" transform="matrix(1,0,0,1,471.66666666662786,2066.580164552342) translate(41.666666666666664 82.27083333333334)"/><path d="M146.67 2264c0 44.18-35.82 80-80 80-44.2 0-80-35.82-80-80s35.8-80 80-80c44.18 0 80 35.82 80 80z" stroke="#282c33" stroke-width="2" fill="#fff"/><use xlink:href="#c" transform="matrix(1,0,0,1,-8.333333333372138,2189) translate(56.48148148148148 82.27083333333334)"/><path d="M146.67 2508c0 44.18-35.82 80-80 80-44.2 0-80-35.82-80-80s35.8-80 80-80c44.18 0 80 35.82 80 80z" stroke="#282c33" stroke-width="2" fill="#fff"/><use xlink:href="#d" transform="matrix(1,0,0,1,-8.333333333372138,2433) translate(56.48148148148148 82.27083333333334)"/><path d="M148.13 2263.82l302.25-116.35" stroke="#3a414a" fill="none"/><path d="M148.32 2264.26l-.67.25.02-.5v-.5l.3-.13z" stroke="#3a414a" stroke-width=".05" fill="#3a414a"/><path d="M464.16 2142.16l-11.65 9.45-3.32-8.64z" stroke="#3a414a" fill="#3a414a"/><path d="M148 2507.62l306.93-353.67" stroke="#3a414a" fill="none"/><path d="M148.36 2507.92l-.72.83.03-.74v-.68z" stroke="#3a414a" stroke-width=".05" fill="#3a414a"/><path d="M464.6 2142.8l-5.84 13.8-7-6.06z" stroke="#3a414a" fill="#3a414a"/><path d="M651.67 2385c0 58-47 105-105 105s-105-47-105-105 47-105 105-105 105 47 105 105z" stroke="#9391ff" stroke-width="2" fill="#dedeff"/><path d="M626.67 2385c0 44.18-35.82 80-80 80-44.2 0-80-35.82-80-80s35.8-80 80-80c44.18 0 80 35.82 80 80z" stroke="#282c33" stroke-width="2" fill="#fff"/><use xlink:href="#e" transform="matrix(1,0,0,1,471.66666666662786,2310) translate(41.666666666666664 82.27083333333334)"/><path d="M145.54 2040.26L454.52 2373" stroke="#3a414a" fill="none"/><path d="M145.9 2039.94l-.7.65-.14-.16.1-.34.16-.77z" stroke="#3a414a" stroke-width=".05" fill="#3a414a"/><path d="M464.57 2383.8l-13.1-7.3 6.78-6.3z" stroke="#3a414a" fill="#3a414a"/><path d="M148.13 2264.18l302.22 115" stroke="#3a414a" fill="none"/><path d="M148.3 2263.74l-.32.9-.33-.14.02-.5v-.5z" stroke="#3a414a" stroke-width=".05" fill="#3a414a"/><path d="M464.15 2384.43l-14.98-.75 3.3-8.66z" stroke="#3a414a" fill="#3a414a"/><path d="M148.13 2507.82l302.26-116.9" stroke="#3a414a" fill="none"/><path d="M148.32 2508.26l-.67.25.02-.5v-.5l.3-.13z" stroke="#3a414a" stroke-width=".05" fill="#3a414a"/><path d="M464.16 2385.58l-11.64 9.47-3.34-8.64z" stroke="#3a414a" fill="#3a414a"/><path d="M280 2070c0 16.57-13.43 30-30 30s-30-13.43-30-30 13.43-30 30-30 30 13.43 30 30z" stroke="#00c2a8" stroke-width="2" fill="#d7faf5"/><use xlink:href="#f" transform="matrix(1,0,0,1,225,2045) translate(6.481481481481481 30.708333333333336)"/><path d="M280 2146.2c0 16.55-13.43 30-30 30s-30-13.45-30-30c0-16.58 13.43-30 30-30s30 13.42 30 30z" stroke="#00c2a8" stroke-width="2" fill="#d7faf5"/><use xlink:href="#g" transform="matrix(1,0,0,1,225,2121.1851234142505) translate(6.481481481481481 30.708333333333336)"/><path d="M280 2225.8c0 16.56-13.43 30-30 30s-30-13.44-30-30c0-16.58 13.43-30 30-30s30 13.42 30 30z" stroke="#00c2a8" stroke-width="2" fill="#d7faf5"/><use xlink:href="#h" transform="matrix(1,0,0,1,225,2200.790082276159) translate(6.481481481481481 30.708333333333336)"/><path d="M280 2305.4c0 16.56-13.43 30-30 30s-30-13.44-30-30c0-16.57 13.43-30 30-30s30 13.43 30 30z" stroke="#00c2a8" stroke-width="2" fill="#d7faf5"/><use xlink:href="#i" transform="matrix(1,0,0,1,225,2280.3950411380674) translate(6.481481481481481 30.708333333333336)"/><path d="M280 2399c0 16.57-13.43 30-30 30s-30-13.43-30-30 13.43-30 30-30 30 13.43 30 30z" stroke="#00c2a8" stroke-width="2" fill="#d7faf5"/><use xlink:href="#j" transform="matrix(1,0,0,1,225,2374) translate(6.481481481481481 30.708333333333336)"/><path d="M280 2470c0 16.57-13.43 30-30 30s-30-13.43-30-30 13.43-30 30-30 30 13.43 30 30z" stroke="#00c2a8" stroke-width="2" fill="#d7faf5"/><use xlink:href="#k" transform="matrix(1,0,0,1,225,2445) translate(6.481481481481481 30.708333333333336)"/><path d="M1010 2264c0 58-47 105-105 105s-105-47-105-105 47-105 105-105 105 47 105 105z" stroke="#9391ff" stroke-width="2" fill="#dedeff"/><path d="M985 2264c0 44.18-35.82 80-80 80s-80-35.82-80-80 35.82-80 80-80 80 35.82 80 80z" stroke="#282c33" stroke-width="2" fill="#fff"/><use xlink:href="#l" transform="matrix(1,0,0,1,830,2189) translate(34.25925925925925 82.27083333333334)"/><path d="M623.76 2167.98l185.47 88.94" stroke="#3a414a" fill="none"/><path d="M623.98 2167.56l-.4.85-.43-.2.32-.9z" stroke="#3a414a" stroke-width=".05" fill="#3a414a"/><path d="M822.54 2263.3l-14.87-2 4-8.35z" stroke="#3a414a" fill="#3a414a"/><path d="M623.87 2358.87l185.33-87.85" stroke="#3a414a" fill="none"/><path d="M624.1 2359.3l-.52.23-.03-.1-.3-.8.43-.2z" stroke="#3a414a" stroke-width=".05" fill="#3a414a"/><path d="M822.54 2264.7l-10.9 10.3-3.98-8.4z" stroke="#3a414a" fill="#3a414a"/><path d="M755.83 2206.2c0 16.55-13.43 30-30 30s-30-13.45-30-30c0-16.58 13.43-30 30-30s30 13.42 30 30z" stroke="#00c2a8" stroke-width="2" fill="#d7faf5"/><use xlink:href="#d" transform="matrix(1,0,0,1,700.8333333333139,2181.1851234142505) translate(6.481481481481481 30.708333333333336)"/><path d="M755.83 2314c0 16.57-13.43 30-30 30s-30-13.43-30-30 13.43-30 30-30 30 13.43 30 30z" stroke="#00c2a8" stroke-width="2" fill="#d7faf5"/><use xlink:href="#m" transform="matrix(1,0,0,1,700.8333333333139,2289) translate(6.481481481481481 30.708333333333336)"/><path d="M762.5 2406a6 6 0 0 1 6-6h273a6 6 0 0 1 6 6v59a6 6 0 0 1-6 6h-273a6 6 0 0 1-6-6z" stroke="#00c2a8" stroke-width="2" fill="#d7faf5"/><use xlink:href="#n" transform="matrix(1,0,0,1,767.5,2405) translate(11.419753086419774 36.84027777777778)"/><use xlink:href="#o" transform="matrix(1,0,0,1,767.5,2405) translate(176.54320987654322 36.84027777777778)"/><use xlink:href="#p" transform="matrix(1,0,0,1,767.5,2405) translate(195.679012345679 36.84027777777778)"/><path d="M416.67 1946a6 6 0 0 1 6-6h248a6 6 0 0 1 6 6v59a6 6 0 0 1-6 6h-248a6 6 0 0 1-6-6z" stroke="#00c2a8" stroke-width="2" fill="#d7faf5"/><use xlink:href="#q" transform="matrix(1,0,0,1,421.66666666662786,1945) translate(34.012345679012356 36.84027777777778)"/><use xlink:href="#o" transform="matrix(1,0,0,1,421.66666666662786,1945) translate(141.2962962962963 36.84027777777778)"/><use xlink:href="#r" transform="matrix(1,0,0,1,421.66666666662786,1945) translate(160.4320987654321 36.84027777777778)"/><path d="M406.67 2529.42a6 6 0 0 1 6-6h248a6 6 0 0 1 6 6v59a6 6 0 0 1-6 6h-248a6 6 0 0 1-6-6z" stroke="#00c2a8" stroke-width="2" fill="#d7faf5"/><g><use xlink:href="#s" transform="matrix(1,0,0,1,411.66666666662786,2528.419835447683) translate(34.012345679012356 36.84027777777778)"/><use xlink:href="#o" transform="matrix(1,0,0,1,411.66666666662786,2528.419835447683) translate(141.2962962962963 36.84027777777778)"/><use xlink:href="#t" transform="matrix(1,0,0,1,411.66666666662786,2528.419835447683) translate(160.4320987654321 36.84027777777778)"/></g><defs><path fill="#3a414a" d="M101-251c68 0 85 55 85 127S166 4 100 4C33 4 14-52 14-124c0-73 17-127 87-127zm-1 229c47 0 54-49 54-102s-4-102-53-102c-51 0-55 48-55 102 0 53 5 102 54 102" id="u"/><path fill="#3a414a" d="M33 0v-38h34V0H33" id="v"/><path fill="#3a414a" d="M64 0c3-98 48-159 88-221H18v-27h164v26C143-157 98-101 97 0H64" id="w"/><g id="a"><use transform="matrix(0.07407407407407408,0,0,0.07407407407407408,0,0)" xlink:href="#u"/><use transform="matrix(0.07407407407407408,0,0,0.07407407407407408,14.814814814814817,0)" xlink:href="#v"/><use transform="matrix(0.07407407407407408,0,0,0.07407407407407408,22.222222222222225,0)" xlink:href="#w"/></g><path fill="#3a414a" d="M134-131c28 9 52 24 51 62-1 50-34 73-85 73S17-19 16-69c0-36 21-54 49-61-75-25-45-126 34-121 46 3 78 18 79 63 0 33-17 51-44 57zm-34-11c31 1 46-15 46-44 0-28-17-43-47-42-29 0-46 13-45 42 1 28 16 44 46 44zm1 122c35 0 51-18 51-52 0-30-18-46-53-46-33 0-51 17-51 47 0 34 19 51 53 51" id="x"/><path fill="#3a414a" d="M110-160c48 1 74 30 74 79 0 53-28 85-80 85-65 0-83-55-86-122-5-90 50-162 133-122 14 7 22 21 27 39l-31 6c-5-40-67-38-82-6-9 19-15 44-15 74 11-20 30-34 60-33zm-7 138c34 0 49-23 49-58s-16-56-50-56c-29 0-50 16-49 49 1 36 15 65 50 65" id="y"/><g id="b"><use transform="matrix(0.07407407407407408,0,0,0.07407407407407408,0,0)" xlink:href="#u"/><use transform="matrix(0.07407407407407408,0,0,0.07407407407407408,14.814814814814817,0)" xlink:href="#v"/><use transform="matrix(0.07407407407407408,0,0,0.07407407407407408,22.222222222222225,0)" xlink:href="#w"/><use transform="matrix(0.07407407407407408,0,0,0.07407407407407408,37.03703703703704,0)" xlink:href="#x"/><use transform="matrix(0.07407407407407408,0,0,0.07407407407407408,51.85185185185186,0)" xlink:href="#y"/></g><path fill="#3a414a" d="M54-142c48-35 137-8 131 61C196 18 31 33 14-55l32-4c7 23 22 37 52 37 35-1 51-22 54-58 4-55-73-65-99-34H22l8-134h141v27H59" id="z"/><g id="c"><use transform="matrix(0.07407407407407408,0,0,0.07407407407407408,0,0)" xlink:href="#u"/><use transform="matrix(0.07407407407407408,0,0,0.07407407407407408,14.814814814814817,0)" xlink:href="#v"/><use transform="matrix(0.07407407407407408,0,0,0.07407407407407408,22.222222222222225,0)" xlink:href="#z"/></g><path fill="#3a414a" d="M126-127c33 6 58 20 58 59 0 88-139 92-164 29-3-8-5-16-6-25l32-3c6 27 21 44 54 44 32 0 52-15 52-46 0-38-36-46-79-43v-28c39 1 72-4 72-42 0-27-17-43-46-43-28 0-47 15-49 41l-32-3c6-42 35-63 81-64 48-1 79 21 79 65 0 36-21 52-52 59" id="A"/><g id="d"><use transform="matrix(0.07407407407407408,0,0,0.07407407407407408,0,0)" xlink:href="#u"/><use transform="matrix(0.07407407407407408,0,0,0.07407407407407408,14.814814814814817,0)" xlink:href="#v"/><use transform="matrix(0.07407407407407408,0,0,0.07407407407407408,22.222222222222225,0)" xlink:href="#A"/></g><path fill="#3a414a" d="M155-56V0h-30v-56H8v-25l114-167h33v167h35v25h-35zm-30-156c-27 46-58 90-88 131h88v-131" id="B"/><path fill="#3a414a" d="M27 0v-27h64v-190l-56 39v-29l58-41h29v221h61V0H27" id="C"/><g id="e"><use transform="matrix(0.07407407407407408,0,0,0.07407407407407408,0,0)" xlink:href="#u"/><use transform="matrix(0.07407407407407408,0,0,0.07407407407407408,14.814814814814817,0)" xlink:href="#v"/><use transform="matrix(0.07407407407407408,0,0,0.07407407407407408,22.222222222222225,0)" xlink:href="#y"/><use transform="matrix(0.07407407407407408,0,0,0.07407407407407408,37.03703703703704,0)" xlink:href="#B"/><use transform="matrix(0.07407407407407408,0,0,0.07407407407407408,51.85185185185186,0)" xlink:href="#C"/></g><g id="f"><use transform="matrix(0.07407407407407408,0,0,0.07407407407407408,0,0)" xlink:href="#C"/><use transform="matrix(0.07407407407407408,0,0,0.07407407407407408,14.814814814814817,0)" xlink:href="#v"/><use transform="matrix(0.07407407407407408,0,0,0.07407407407407408,22.222222222222225,0)" xlink:href="#u"/></g><g id="g"><use transform="matrix(0.07407407407407408,0,0,0.07407407407407408,0,0)" xlink:href="#u"/><use transform="matrix(0.07407407407407408,0,0,0.07407407407407408,14.814814814814817,0)" xlink:href="#v"/><use transform="matrix(0.07407407407407408,0,0,0.07407407407407408,22.222222222222225,0)" xlink:href="#x"/></g><g id="h"><use transform="matrix(0.07407407407407408,0,0,0.07407407407407408,0,0)" xlink:href="#u"/><use transform="matrix(0.07407407407407408,0,0,0.07407407407407408,14.814814814814817,0)" xlink:href="#v"/><use transform="matrix(0.07407407407407408,0,0,0.07407407407407408,22.222222222222225,0)" xlink:href="#y"/></g><g id="i"><use transform="matrix(0.07407407407407408,0,0,0.07407407407407408,0,0)" xlink:href="#u"/><use transform="matrix(0.07407407407407408,0,0,0.07407407407407408,14.814814814814817,0)" xlink:href="#v"/><use transform="matrix(0.07407407407407408,0,0,0.07407407407407408,22.222222222222225,0)" xlink:href="#B"/></g><path fill="#3a414a" d="M101-251c82-7 93 87 43 132L82-64C71-53 59-42 53-27h129V0H18c2-99 128-94 128-182 0-28-16-43-45-43s-46 15-49 41l-32-3c6-41 34-60 81-64" id="D"/><g id="j"><use transform="matrix(0.07407407407407408,0,0,0.07407407407407408,0,0)" xlink:href="#u"/><use transform="matrix(0.07407407407407408,0,0,0.07407407407407408,14.814814814814817,0)" xlink:href="#v"/><use transform="matrix(0.07407407407407408,0,0,0.07407407407407408,22.222222222222225,0)" xlink:href="#D"/></g><g id="k"><use transform="matrix(0.07407407407407408,0,0,0.07407407407407408,0,0)" xlink:href="#u"/><use transform="matrix(0.07407407407407408,0,0,0.07407407407407408,14.814814814814817,0)" xlink:href="#v"/><use transform="matrix(0.07407407407407408,0,0,0.07407407407407408,22.222222222222225,0)" xlink:href="#u"/></g><g id="l"><use transform="matrix(0.07407407407407408,0,0,0.07407407407407408,0,0)" xlink:href="#u"/><use transform="matrix(0.07407407407407408,0,0,0.07407407407407408,14.814814814814817,0)" xlink:href="#v"/><use transform="matrix(0.07407407407407408,0,0,0.07407407407407408,22.222222222222225,0)" xlink:href="#z"/><use transform="matrix(0.07407407407407408,0,0,0.07407407407407408,37.03703703703704,0)" xlink:href="#w"/><use transform="matrix(0.07407407407407408,0,0,0.07407407407407408,51.85185185185186,0)" xlink:href="#B"/><use transform="matrix(0.07407407407407408,0,0,0.07407407407407408,66.66666666666667,0)" xlink:href="#B"/></g><g id="m"><use transform="matrix(0.07407407407407408,0,0,0.07407407407407408,0,0)" xlink:href="#u"/><use transform="matrix(0.07407407407407408,0,0,0.07407407407407408,14.814814814814817,0)" xlink:href="#v"/><use transform="matrix(0.07407407407407408,0,0,0.07407407407407408,22.222222222222225,0)" xlink:href="#C"/></g><path fill="#3a414a" d="M135-143c-3-34-86-38-87 0 15 53 115 12 119 90S17 21 10-45l28-5c4 36 97 45 98 0-10-56-113-15-118-90-4-57 82-63 122-42 12 7 21 19 24 35" id="E"/><path fill="#3a414a" d="M24-231v-30h32v30H24zM24 0v-190h32V0H24" id="F"/><path fill="#3a414a" d="M177-190C167-65 218 103 67 71c-23-6-38-20-44-43l32-5c15 47 100 32 89-28v-30C133-14 115 1 83 1 29 1 15-40 15-95c0-56 16-97 71-98 29-1 48 16 59 35 1-10 0-23 2-32h30zM94-22c36 0 50-32 50-73 0-42-14-75-50-75-39 0-46 34-46 75s6 73 46 73" id="G"/><path fill="#3a414a" d="M210-169c-67 3-38 105-44 169h-31v-121c0-29-5-50-35-48C34-165 62-65 56 0H25l-1-190h30c1 10-1 24 2 32 10-44 99-50 107 0 11-21 27-35 58-36 85-2 47 119 55 194h-31v-121c0-29-5-49-35-48" id="H"/><path fill="#3a414a" d="M100-194c62-1 85 37 85 99 1 63-27 99-86 99S16-35 15-95c0-66 28-99 85-99zM99-20c44 1 53-31 53-75 0-43-8-75-51-75s-53 32-53 75 10 74 51 75" id="I"/><path fill="#3a414a" d="M85-194c31 0 48 13 60 33l-1-100h32l1 261h-30c-2-10 0-23-3-31C134-8 116 4 85 4 32 4 16-35 15-94c0-66 23-100 70-100zm9 24c-40 0-46 34-46 75 0 40 6 74 45 74 42 0 51-32 51-76 0-42-9-74-50-73" id="J"/><path fill="#3a414a" d="M87 75C49 33 22-17 22-94c0-76 28-126 65-167h31c-38 41-64 92-64 168S80 34 118 75H87" id="K"/><path fill="#3a414a" d="M99-251c64 0 84 50 84 122C183-37 130 33 47-8c-14-7-20-23-25-40l30-5c6 39 69 39 84 7 9-19 16-44 16-74-10 22-31 35-62 35-49 0-73-33-73-83 0-54 28-83 82-83zm-1 141c31-1 51-18 51-49 0-36-14-67-51-67-34 0-49 23-49 58 0 34 15 58 49 58" id="L"/><path fill="#3a414a" d="M33-261c38 41 65 92 65 168S71 34 33 75H2C39 34 66-17 66-93S39-220 2-261h31" id="M"/><g id="n"><use transform="matrix(0.06172839506172839,0,0,0.06172839506172839,0,0)" xlink:href="#E"/><use transform="matrix(0.06172839506172839,0,0,0.06172839506172839,11.11111111111111,0)" xlink:href="#F"/><use transform="matrix(0.06172839506172839,0,0,0.06172839506172839,15.987654320987653,0)" xlink:href="#G"/><use transform="matrix(0.06172839506172839,0,0,0.06172839506172839,28.333333333333332,0)" xlink:href="#H"/><use transform="matrix(0.06172839506172839,0,0,0.06172839506172839,46.79012345679012,0)" xlink:href="#I"/><use transform="matrix(0.06172839506172839,0,0,0.06172839506172839,59.1358024691358,0)" xlink:href="#F"/><use transform="matrix(0.06172839506172839,0,0,0.06172839506172839,64.01234567901234,0)" xlink:href="#J"/><use transform="matrix(0.06172839506172839,0,0,0.06172839506172839,76.35802469135803,0)" xlink:href="#K"/><use transform="matrix(0.06172839506172839,0,0,0.06172839506172839,83.70370370370371,0)" xlink:href="#u"/><use transform="matrix(0.06172839506172839,0,0,0.06172839506172839,96.0493827160494,0)" xlink:href="#v"/><use transform="matrix(0.06172839506172839,0,0,0.06172839506172839,102.22222222222223,0)" xlink:href="#D"/><use transform="matrix(0.06172839506172839,0,0,0.06172839506172839,114.56790123456791,0)" xlink:href="#L"/><use transform="matrix(0.06172839506172839,0,0,0.06172839506172839,126.9135802469136,0)" xlink:href="#L"/><use transform="matrix(0.06172839506172839,0,0,0.06172839506172839,139.25925925925927,0)" xlink:href="#L"/><use transform="matrix(0.06172839506172839,0,0,0.06172839506172839,151.60493827160494,0)" xlink:href="#M"/></g><path fill="#3a414a" d="M18-150v-26h174v26H18zm0 90v-26h174v26H18" id="N"/><use transform="matrix(0.06172839506172839,0,0,0.06172839506172839,0,0)" xlink:href="#N" id="o"/><g id="p"><use transform="matrix(0.06172839506172839,0,0,0.06172839506172839,0,0)" xlink:href="#u"/><use transform="matrix(0.06172839506172839,0,0,0.06172839506172839,12.345679012345679,0)" xlink:href="#v"/><use transform="matrix(0.06172839506172839,0,0,0.06172839506172839,18.51851851851852,0)" xlink:href="#z"/><use transform="matrix(0.06172839506172839,0,0,0.06172839506172839,30.864197530864196,0)" xlink:href="#w"/><use transform="matrix(0.06172839506172839,0,0,0.06172839506172839,43.20987654320987,0)" xlink:href="#B"/><use transform="matrix(0.06172839506172839,0,0,0.06172839506172839,55.55555555555555,0)" xlink:href="#B"/></g><path fill="#3a414a" d="M59-47c-2 24 18 29 38 22v24C64 9 27 4 27-40v-127H5v-23h24l9-43h21v43h35v23H59v120" id="O"/><path fill="#3a414a" d="M141-36C126-15 110 5 73 4 37 3 15-17 15-53c-1-64 63-63 125-63 3-35-9-54-41-54-24 1-41 7-42 31l-33-3c5-37 33-52 76-52 45 0 72 20 72 64v82c-1 20 7 32 28 27v20c-31 9-61-2-59-35zM48-53c0 20 12 33 32 33 41-3 63-29 60-74-43 2-92-5-92 41" id="P"/><path fill="#3a414a" d="M117-194c89-4 53 116 60 194h-32v-121c0-31-8-49-39-48C34-167 62-67 57 0H25l-1-190h30c1 10-1 24 2 32 11-22 29-35 61-36" id="Q"/><path fill="#3a414a" d="M106-169C34-169 62-67 57 0H25v-261h32l-1 103c12-21 28-36 61-36 89 0 53 116 60 194h-32v-121c2-32-8-49-39-48" id="R"/><g id="q"><use transform="matrix(0.06172839506172839,0,0,0.06172839506172839,0,0)" xlink:href="#O"/><use transform="matrix(0.06172839506172839,0,0,0.06172839506172839,6.172839506172839,0)" xlink:href="#P"/><use transform="matrix(0.06172839506172839,0,0,0.06172839506172839,18.51851851851852,0)" xlink:href="#Q"/><use transform="matrix(0.06172839506172839,0,0,0.06172839506172839,30.864197530864196,0)" xlink:href="#R"/><use transform="matrix(0.06172839506172839,0,0,0.06172839506172839,43.20987654320987,0)" xlink:href="#K"/><use transform="matrix(0.06172839506172839,0,0,0.06172839506172839,50.55555555555555,0)" xlink:href="#C"/><use transform="matrix(0.06172839506172839,0,0,0.06172839506172839,62.90123456790123,0)" xlink:href="#v"/><use transform="matrix(0.06172839506172839,0,0,0.06172839506172839,69.07407407407406,0)" xlink:href="#u"/><use transform="matrix(0.06172839506172839,0,0,0.06172839506172839,81.41975308641975,0)" xlink:href="#y"/><use transform="matrix(0.06172839506172839,0,0,0.06172839506172839,93.76543209876543,0)" xlink:href="#M"/></g><g id="r"><use transform="matrix(0.06172839506172839,0,0,0.06172839506172839,0,0)" xlink:href="#u"/><use transform="matrix(0.06172839506172839,0,0,0.06172839506172839,12.345679012345679,0)" xlink:href="#v"/><use transform="matrix(0.06172839506172839,0,0,0.06172839506172839,18.51851851851852,0)" xlink:href="#w"/><use transform="matrix(0.06172839506172839,0,0,0.06172839506172839,30.864197530864196,0)" xlink:href="#x"/><use transform="matrix(0.06172839506172839,0,0,0.06172839506172839,43.20987654320987,0)" xlink:href="#y"/></g><g id="s"><use transform="matrix(0.06172839506172839,0,0,0.06172839506172839,0,0)" xlink:href="#O"/><use transform="matrix(0.06172839506172839,0,0,0.06172839506172839,6.172839506172839,0)" xlink:href="#P"/><use transform="matrix(0.06172839506172839,0,0,0.06172839506172839,18.51851851851852,0)" xlink:href="#Q"/><use transform="matrix(0.06172839506172839,0,0,0.06172839506172839,30.864197530864196,0)" xlink:href="#R"/><use transform="matrix(0.06172839506172839,0,0,0.06172839506172839,43.20987654320987,0)" xlink:href="#K"/><use transform="matrix(0.06172839506172839,0,0,0.06172839506172839,50.55555555555555,0)" xlink:href="#u"/><use transform="matrix(0.06172839506172839,0,0,0.06172839506172839,62.90123456790123,0)" xlink:href="#v"/><use transform="matrix(0.06172839506172839,0,0,0.06172839506172839,69.07407407407406,0)" xlink:href="#w"/><use transform="matrix(0.06172839506172839,0,0,0.06172839506172839,81.41975308641975,0)" xlink:href="#y"/><use transform="matrix(0.06172839506172839,0,0,0.06172839506172839,93.76543209876543,0)" xlink:href="#M"/></g><g id="t"><use transform="matrix(0.06172839506172839,0,0,0.06172839506172839,0,0)" xlink:href="#u"/><use transform="matrix(0.06172839506172839,0,0,0.06172839506172839,12.345679012345679,0)" xlink:href="#v"/><use transform="matrix(0.06172839506172839,0,0,0.06172839506172839,18.51851851851852,0)" xlink:href="#y"/><use transform="matrix(0.06172839506172839,0,0,0.06172839506172839,30.864197530864196,0)" xlink:href="#B"/><use transform="matrix(0.06172839506172839,0,0,0.06172839506172839,43.20987654320987,0)" xlink:href="#C"/></g></defs></g></svg>