<svg xmlns="http://www.w3.org/2000/svg" xmlns:xlink="http://www.w3.org/1999/xlink" xmlns:lucid="lucid" width="2202" height="1222"><g transform="translate(901.0000000032525 -218.9999999982043)" lucid:page-tab-id="0_0"><path d="M-1000-500h2500v2000h-2500z" fill="#fff"/><path d="M-900 226a6 6 0 0 1 6-6h2188a6 6 0 0 1 6 6v1208a6 6 0 0 1-6 6H-894a6 6 0 0 1-6-6z" stroke="#6f7681" stroke-width="2" fill="#fff"/><path d="M20 570c0 44.18-35.82 80-80 80s-80-35.82-80-80 35.82-80 80-80 80 35.82 80 80z" stroke="#282c33" stroke-width="2" fill="#fff"/><use xlink:href="#a" transform="matrix(1,0,0,1,-135,495) translate(15.074074074074069 82.27083333333334)"/><path d="M20 750c0 44.18-35.82 80-80 80s-80-35.82-80-80 35.82-80 80-80 80 35.82 80 80z" stroke="#282c33" stroke-width="2" fill="#fff"/><use xlink:href="#b" transform="matrix(1,0,0,1,-135,675) translate(15.074074074074069 82.27083333333334)"/><path d="M20 930c0 44.18-35.82 80-80 80s-80-35.82-80-80 35.82-80 80-80 80 35.82 80 80z" stroke="#282c33" stroke-width="2" fill="#fff"/><use xlink:href="#c" transform="matrix(1,0,0,1,-135,855) translate(15.074074074074069 82.27083333333334)"/><path d="M520 480c0 44.18-35.82 80-80 80s-80-35.82-80-80 35.82-80 80-80 80 35.82 80 80zM520 660c0 44.18-35.82 80-80 80s-80-35.82-80-80 35.82-80 80-80 80 35.82 80 80zM520 840c0 44.18-35.82 80-80 80s-80-35.82-80-80 35.82-80 80-80 80 35.82 80 80zM520 1020c0 44.18-35.82 80-80 80s-80-35.82-80-80 35.82-80 80-80 80 35.82 80 80zM980 750c0 44.18-35.82 80-80 80s-80-35.82-80-80 35.82-80 80-80 80 35.82 80 80z" stroke="#282c33" stroke-width="2" fill="#fff"/><use xlink:href="#d" transform="matrix(1,0,0,1,825,675) translate(15.851851851851848 82.27083333333334)"/><path d="M21.48 569.87l321.7-85.65" stroke="#3a414a" fill="none"/><path d="M21.62 570.33l-.64.17.02-.5v-.5l.37-.1z" stroke="#3a414a" stroke-width=".05" fill="#3a414a"/><path d="M357.44 480.42l-12.6 8.15-2.38-8.96z" stroke="#3a414a" fill="#3a414a"/><path d="M21.48 570.13l321.7 85.65" stroke="#3a414a" fill="none"/><path d="M21.62 569.67l-.25.92-.4-.1.03-.5v-.5z" stroke="#3a414a" stroke-width=".05" fill="#3a414a"/><path d="M357.44 659.58l-14.98.8 2.38-8.95z" stroke="#3a414a" fill="#3a414a"/><path d="M21.4 570.3l324.8 259.47" stroke="#3a414a" fill="none"/><path d="M21.7 569.95l-.6.74-.12-.1.02-.6v-.6z" stroke="#3a414a" stroke-width=".05" fill="#3a414a"/><path d="M357.74 839l-14.04-5.3 5.78-7.24z" stroke="#3a414a" fill="#3a414a"/><path d="M21.3 570.4l327.86 436.5" stroke="#3a414a" fill="none"/><path d="M21.7 570.13l-.72.53.02-.65V569.2z" stroke="#3a414a" stroke-width=".05" fill="#3a414a"/><path d="M358.03 1018.7l-12.28-8.62 7.42-5.56z" stroke="#3a414a" fill="#3a414a"/><path d="M21.48 749.87l321.7-85.65" stroke="#3a414a" fill="none"/><path d="M21.62 750.33l-.64.17.02-.5v-.5l.37-.1z" stroke="#3a414a" stroke-width=".05" fill="#3a414a"/><path d="M357.44 660.42l-12.6 8.15-2.38-8.96z" stroke="#3a414a" fill="#3a414a"/><path d="M21.4 749.7l324.8-259.47" stroke="#3a414a" fill="none"/><path d="M21.7 750.05l-.72.57.02-.6v-.63l.1-.1z" stroke="#3a414a" stroke-width=".05" fill="#3a414a"/><path d="M357.74 481l-8.26 12.54-5.78-7.25z" stroke="#3a414a" fill="#3a414a"/><path d="M21.48 750.13l321.7 85.65" stroke="#3a414a" fill="none"/><path d="M21.62 749.67l-.25.92-.4-.1.03-.5v-.5z" stroke="#3a414a" stroke-width=".05" fill="#3a414a"/><path d="M357.44 839.58l-14.98.8 2.38-8.95z" stroke="#3a414a" fill="#3a414a"/><path d="M21.4 750.3l324.8 259.47" stroke="#3a414a" fill="none"/><path d="M21.7 749.95l-.6.74-.12-.1.02-.6v-.6z" stroke="#3a414a" stroke-width=".05" fill="#3a414a"/><path d="M357.74 1019l-14.04-5.3 5.78-7.24z" stroke="#3a414a" fill="#3a414a"/><path d="M21.4 929.7l324.8-259.47" stroke="#3a414a" fill="none"/><path d="M21.7 930.05l-.72.57.02-.6v-.63l.1-.1z" stroke="#3a414a" stroke-width=".05" fill="#3a414a"/><path d="M357.74 661l-8.26 12.53-5.78-7.24z" stroke="#3a414a" fill="#3a414a"/><path d="M21.3 929.6l327.86-436.5" stroke="#3a414a" fill="none"/><path d="M21.7 929.88l-.72.95.02-.82v-.64z" stroke="#3a414a" stroke-width=".05" fill="#3a414a"/><path d="M358.03 481.3l-4.86 14.18-7.42-5.56z" stroke="#3a414a" fill="#3a414a"/><path d="M21.48 930.13l321.7 85.65" stroke="#3a414a" fill="none"/><path d="M21.62 929.67l-.25.92-.4-.1.03-.5v-.5z" stroke="#3a414a" stroke-width=".05" fill="#3a414a"/><path d="M357.44 1019.58l-14.98.8 2.38-8.95z" stroke="#3a414a" fill="#3a414a"/><path d="M21.48 929.87l321.7-85.65" stroke="#3a414a" fill="none"/><path d="M21.62 930.33l-.64.17.02-.5v-.5l.37-.1z" stroke="#3a414a" stroke-width=".05" fill="#3a414a"/><path d="M357.44 840.42l-12.6 8.15-2.38-8.96z" stroke="#3a414a" fill="#3a414a"/><path d="M521.33 481.74l285.5 257.3" stroke="#3a414a" fill="none"/><path d="M521.66 481.4l-.64.7-.08-.08.04-1.24z" stroke="#3a414a" stroke-width=".05" fill="#3a414a"/><path d="M817.8 748.92l-13.7-6.1 6.2-6.9z" stroke="#3a414a" fill="#3a414a"/><path d="M521.48 660.14l281.84 85.12" stroke="#3a414a" fill="none"/><path d="M521.63 659.7l-.28.9-.37-.1.02-.5v-.5z" stroke="#3a414a" stroke-width=".05" fill="#3a414a"/><path d="M817.45 749.53l-15 .32 2.68-8.88z" stroke="#3a414a" fill="#3a414a"/><path d="M521.48 839.86l281.84-85.12" stroke="#3a414a" fill="none"/><path d="M521.63 840.3l-.64.2v-1l.35-.1z" stroke="#3a414a" stroke-width=".05" fill="#3a414a"/><path d="M817.45 750.47l-12.32 8.56-2.68-8.88z" stroke="#3a414a" fill="#3a414a"/><path d="M521.37 1019.66L806.87 761" stroke="#3a414a" fill="none"/><path d="M521.7 1020l-.72.66.02-.65v-.64l.06-.06z" stroke="#3a414a" stroke-width=".05" fill="#3a414a"/><path d="M817.8 751.1l-7.46 13-6.22-6.87z" stroke="#3a414a" fill="#3a414a"/><path d="M-160 1346a6 6 0 0 1 6-6H34a6 6 0 0 1 6 6v48a6 6 0 0 1-6 6h-188a6 6 0 0 1-6-6z" stroke="#00c2a8" stroke-width="2" fill="#d7faf5"/><use xlink:href="#e" transform="matrix(1,0,0,1,-155,1345) translate(28.370370370370352 30.708333333333336)"/><use xlink:href="#f" transform="matrix(1,0,0,1,-155,1345) translate(95.03703703703702 30.708333333333336)"/><path d="M345.33 1346a6 6 0 0 1 6-6h188a6 6 0 0 1 6 6v48a6 6 0 0 1-6 6h-188a6 6 0 0 1-6-6z" stroke="#00c2a8" stroke-width="2" fill="#d7faf5"/><use xlink:href="#g" transform="matrix(1,0,0,1,350.3333333333335,1345) translate(15.851851851851848 30.708333333333336)"/><use xlink:href="#f" transform="matrix(1,0,0,1,350.3333333333335,1345) translate(107.55555555555556 30.708333333333336)"/><path d="M800 1346a6 6 0 0 1 6-6h188a6 6 0 0 1 6 6v48a6 6 0 0 1-6 6H806a6 6 0 0 1-6-6z" stroke="#00c2a8" stroke-width="2" fill="#d7faf5"/><use xlink:href="#h" transform="matrix(1,0,0,1,805,1345) translate(18 30.708333333333336)"/><use xlink:href="#f" transform="matrix(1,0,0,1,805,1345) translate(105.4074074074074 30.708333333333336)"/><path d="M80 303a6 6 0 0 1 6-6h208a6 6 0 0 1 6 6v94a6 6 0 0 1-6 6H86a6 6 0 0 1-6-6z" stroke="#00c2a8" stroke-width="2" fill="#d7faf5"/><use xlink:href="#i" transform="matrix(1,0,0,1,85,302) translate(57.185185185185176 24.364583333333336)"/><use xlink:href="#j" transform="matrix(1,0,0,1,85,302) translate(65.07407407407408 56.364583333333336)"/><use xlink:href="#k" transform="matrix(1,0,0,1,85,302) translate(35.48148148148148 88.36458333333334)"/><use xlink:href="#l" transform="matrix(1,0,0,1,85,302) translate(115.25925925925927 88.36458333333334)"/><use xlink:href="#m" transform="matrix(1,0,0,1,85,302) translate(152.2962962962963 88.36458333333334)"/><path d="M580 303a6 6 0 0 1 6-6h208a6 6 0 0 1 6 6v94a6 6 0 0 1-6 6H586a6 6 0 0 1-6-6z" stroke="#00c2a8" stroke-width="2" fill="#d7faf5"/><use xlink:href="#i" transform="matrix(1,0,0,1,585,302) translate(57.185185185185176 24.364583333333336)"/><use xlink:href="#j" transform="matrix(1,0,0,1,585,302) translate(65.07407407407408 56.364583333333336)"/><use xlink:href="#k" transform="matrix(1,0,0,1,585,302) translate(35.48148148148148 88.36458333333334)"/><use xlink:href="#n" transform="matrix(1,0,0,1,585,302) translate(115.25925925925927 88.36458333333334)"/><use xlink:href="#o" transform="matrix(1,0,0,1,585,302) translate(152.2962962962963 88.36458333333334)"/><path d="M-780 703a6 6 0 0 1 6-6h230.67a6 6 0 0 1 6 6v94a6 6 0 0 1-6 6H-774a6 6 0 0 1-6-6z" stroke="#00c2a8" stroke-width="2" fill="#d7faf5"/><use xlink:href="#p" transform="matrix(1,0,0,1,-775,702) translate(39.35185185185185 24.364583333333336)"/><use xlink:href="#j" transform="matrix(1,0,0,1,-775,702) translate(76.57407407407408 56.364583333333336)"/><use xlink:href="#k" transform="matrix(1,0,0,1,-775,702) translate(44.79629629629629 88.36458333333334)"/><use xlink:href="#q" transform="matrix(1,0,0,1,-775,702) translate(124.57407407407408 88.36458333333334)"/><use xlink:href="#r" transform="matrix(1,0,0,1,-775,702) translate(165.98148148148147 88.36458333333334)"/><path d="M-480 703a6 6 0 0 1 6-6h230.67a6 6 0 0 1 6 6v94a6 6 0 0 1-6 6H-474a6 6 0 0 1-6-6z" stroke="#00c2a8" stroke-width="2" fill="#d7faf5"/><use xlink:href="#s" transform="matrix(1,0,0,1,-475,702) translate(29.018518518518505 36.489583333333336)"/><use xlink:href="#t" transform="matrix(1,0,0,1,-475,702) translate(60.24074074074073 68.48958333333334)"/><use xlink:href="#u" transform="matrix(1,0,0,1,-475,702) translate(143.12962962962962 68.48958333333334)"/><path d="M-535.83 750h38.45" stroke="#3a414a" fill="none"/><path d="M-535.82 750.48h-.5v-.96h.5z" stroke="#3a414a" stroke-width=".05" fill="#3a414a"/><path d="M-482.62 750l-14.26 4.63v-9.26z" stroke="#3a414a" fill="#3a414a"/><path d="M-236.1 749.56l87.43-165.08" stroke="#3a414a" fill="none"/><path d="M-235.67 749.77l-.66 1.25v-1.6z" stroke="#3a414a" stroke-width=".05" fill="#3a414a"/><path d="M-141.76 571.43l-2.58 14.78-8.2-4.33z" stroke="#3a414a" fill="#3a414a"/><path d="M-235.83 750h78.45" stroke="#3a414a" fill="none"/><path d="M-235.82 750.48h-.5v-.96h.5z" stroke="#3a414a" stroke-width=".05" fill="#3a414a"/><path d="M-142.62 750l-14.26 4.63v-9.26z" stroke="#3a414a" fill="#3a414a"/><path d="M-236.1 750.44l87.43 165.08" stroke="#3a414a" fill="none"/><path d="M-235.67 750.23l-.66.35v-1.6z" stroke="#3a414a" stroke-width=".05" fill="#3a414a"/><path d="M-141.76 928.57l-10.77-10.44 8.2-4.34z" stroke="#3a414a" fill="#3a414a"/><path d="M981.5 750h90.45" stroke="#3a414a" fill="none"/><path d="M981.5 750.48h-.5v-.95h.5z" stroke="#3a414a" stroke-width=".05" fill="#3a414a"/><path d="M1086.7 750l-14.25 4.63v-9.26z" stroke="#3a414a" fill="#3a414a"/><path d="M1249.33 750c0 44.18-35.8 80-80 80-44.18 0-80-35.82-80-80s35.82-80 80-80c44.2 0 80 35.82 80 80z" stroke="#fcce14" stroke-width="2" fill="#fcfcca"/><use xlink:href="#v" transform="matrix(1,0,0,1,1094.333333333333,675) translate(46.85185185185185 82.27083333333334)"/><path d="M820 886a6 6 0 0 1 6-6h148a6 6 0 0 1 6 6v94a6 6 0 0 1-6 6H826a6 6 0 0 1-6-6z" stroke="#00c2a8" stroke-width="2" fill="#d7faf5"/><use xlink:href="#w" transform="matrix(1,0,0,1,825,885) translate(27.48148148148148 36.489583333333336)"/><use xlink:href="#x" transform="matrix(1,0,0,1,825,885) translate(25.444444444444443 68.48958333333334)"/><path d="M978.15 879.8l100.56-100.57" stroke="#3a414a" fill="none"/><path d="M978.5 880.1l-.3.3-.08-.07-.74-.45.45-.44z" stroke="#3a414a" stroke-width=".05" fill="#3a414a"/><path d="M1089.15 768.8l-6.8 13.35-6.56-6.55z" stroke="#3a414a" fill="#3a414a"/><path d="M-860 264.33a6 6 0 0 1 6-6h248a6 6 0 0 1 6 6V354a6 6 0 0 1-6 6h-248a6 6 0 0 1-6-6z" stroke="#ced4db" stroke-width="2" fill="#f2f3f5"/><g><use xlink:href="#y" transform="matrix(1,0,0,1,-855,263.3333333333333) translate(68.82716049382717 33.51388888888889)"/><use xlink:href="#z" transform="matrix(1,0,0,1,-855,263.3333333333333) translate(165.6172839506173 33.51388888888889)"/><use xlink:href="#A" transform="matrix(1,0,0,1,-855,263.3333333333333) translate(61.179012345679006 70.84722222222223)"/><use xlink:href="#B" transform="matrix(1,0,0,1,-855,263.3333333333333) translate(181.99382716049382 70.84722222222223)"/></g><path d="M80 1100a6 6 0 0 1 6-6h208a6 6 0 0 1 6 6v94a6 6 0 0 1-6 6H86a6 6 0 0 1-6-6z" stroke="#6db1ff" stroke-width="2" fill="#edf5ff"/><g><use xlink:href="#C" transform="matrix(1,0,0,1,85,1099) translate(47.29629629629629 24.364583333333336)"/><use xlink:href="#j" transform="matrix(1,0,0,1,85,1099) translate(65.07407407407408 56.364583333333336)"/><use xlink:href="#k" transform="matrix(1,0,0,1,85,1099) translate(35.48148148148148 88.36458333333334)"/><use xlink:href="#n" transform="matrix(1,0,0,1,85,1099) translate(115.25925925925927 88.36458333333334)"/><use xlink:href="#r" transform="matrix(1,0,0,1,85,1099) translate(152.2962962962963 88.36458333333334)"/></g><path d="M580 1100a6 6 0 0 1 6-6h208a6 6 0 0 1 6 6v94a6 6 0 0 1-6 6H586a6 6 0 0 1-6-6z" stroke="#6db1ff" stroke-width="2" fill="#edf5ff"/><g><use xlink:href="#C" transform="matrix(1,0,0,1,585,1099) translate(47.29629629629629 24.364583333333336)"/><use xlink:href="#j" transform="matrix(1,0,0,1,585,1099) translate(65.07407407407408 56.364583333333336)"/><use xlink:href="#k" transform="matrix(1,0,0,1,585,1099) translate(35.48148148148148 88.36458333333334)"/><use xlink:href="#D" transform="matrix(1,0,0,1,585,1099) translate(115.25925925925927 88.36458333333334)"/><use xlink:href="#m" transform="matrix(1,0,0,1,585,1099) translate(152.2962962962963 88.36458333333334)"/></g><path d="M1068 1100a6 6 0 0 1 6-6h190.67a6 6 0 0 1 6 6v94a6 6 0 0 1-6 6H1074a6 6 0 0 1-6-6z" stroke="#6db1ff" stroke-width="2" fill="#edf5ff"/><g><use xlink:href="#E" transform="matrix(1,0,0,1,1072.9999999999995,1099) translate(66.87037037037037 36.489583333333336)"/><use xlink:href="#F" transform="matrix(1,0,0,1,1072.9999999999995,1099) translate(24.72222222222223 68.48958333333334)"/></g><path d="M1169.33 831.5v245.12" stroke="#3a414a" fill="none"/><path d="M1169.32 831h.5v.5h-.96v-.5z" stroke="#3a414a" stroke-width=".05" fill="#3a414a"/><path d="M1169.33 1091.38l-4.63-14.26h9.27z" stroke="#3a414a" fill="#3a414a"/><path d="M1066.5 1147H817.38" stroke="#3a414a" fill="none"/><path d="M1067 1147.47h-.5v-.94h.5z" stroke="#3a414a" stroke-width=".05" fill="#3a414a"/><path d="M802.62 1147l14.26-4.63v9.27z" stroke="#3a414a" fill="#3a414a"/><defs><path fill="#3a414a" d="M185-189c-5-48-123-54-124 2 14 75 158 14 163 119 3 78-121 87-175 55-17-10-28-26-33-46l33-7c5 56 141 63 141-1 0-78-155-14-162-118-5-82 145-84 179-34 5 7 8 16 11 25" id="G"/><path fill="#3a414a" d="M141-36C126-15 110 5 73 4 37 3 15-17 15-53c-1-64 63-63 125-63 3-35-9-54-41-54-24 1-41 7-42 31l-33-3c5-37 33-52 76-52 45 0 72 20 72 64v82c-1 20 7 32 28 27v20c-31 9-61-2-59-35zM48-53c0 20 12 33 32 33 41-3 63-29 60-74-43 2-92-5-92 41" id="H"/><path fill="#3a414a" d="M210-169c-67 3-38 105-44 169h-31v-121c0-29-5-50-35-48C34-165 62-65 56 0H25l-1-190h30c1 10-1 24 2 32 10-44 99-50 107 0 11-21 27-35 58-36 85-2 47 119 55 194h-31v-121c0-29-5-49-35-48" id="I"/><path fill="#3a414a" d="M115-194c55 1 70 41 70 98S169 2 115 4C84 4 66-9 55-30l1 105H24l-1-265h31l2 30c10-21 28-34 59-34zm-8 174c40 0 45-34 45-75s-6-73-45-74c-42 0-51 32-51 76 0 43 10 73 51 73" id="J"/><path fill="#3a414a" d="M24 0v-261h32V0H24" id="K"/><path fill="#3a414a" d="M100-194c63 0 86 42 84 106H49c0 40 14 67 53 68 26 1 43-12 49-29l28 8c-11 28-37 45-77 45C44 4 14-33 15-96c1-61 26-98 85-98zm52 81c6-60-76-77-97-28-3 7-6 17-6 28h103" id="L"/><path fill="#3a414a" d="M26 75v-336h71v23H56V52h41v23H26" id="M"/><path fill="#3a414a" d="M101-251c68 0 85 55 85 127S166 4 100 4C33 4 14-52 14-124c0-73 17-127 87-127zm-1 229c47 0 54-49 54-102s-4-102-53-102c-51 0-55 48-55 102 0 53 5 102 54 102" id="N"/><path fill="#3a414a" d="M3 75V52h41v-290H3v-23h71V75H3" id="O"/><g id="a"><use transform="matrix(0.07407407407407408,0,0,0.07407407407407408,0,0)" xlink:href="#G"/><use transform="matrix(0.07407407407407408,0,0,0.07407407407407408,17.77777777777778,0)" xlink:href="#H"/><use transform="matrix(0.07407407407407408,0,0,0.07407407407407408,32.592592592592595,0)" xlink:href="#I"/><use transform="matrix(0.07407407407407408,0,0,0.07407407407407408,54.74074074074075,0)" xlink:href="#J"/><use transform="matrix(0.07407407407407408,0,0,0.07407407407407408,69.55555555555557,0)" xlink:href="#K"/><use transform="matrix(0.07407407407407408,0,0,0.07407407407407408,75.40740740740742,0)" xlink:href="#L"/><use transform="matrix(0.07407407407407408,0,0,0.07407407407407408,90.22222222222223,0)" xlink:href="#M"/><use transform="matrix(0.07407407407407408,0,0,0.07407407407407408,97.62962962962962,0)" xlink:href="#N"/><use transform="matrix(0.07407407407407408,0,0,0.07407407407407408,112.44444444444446,0)" xlink:href="#O"/></g><path fill="#3a414a" d="M27 0v-27h64v-190l-56 39v-29l58-41h29v221h61V0H27" id="P"/><g id="b"><use transform="matrix(0.07407407407407408,0,0,0.07407407407407408,0,0)" xlink:href="#G"/><use transform="matrix(0.07407407407407408,0,0,0.07407407407407408,17.77777777777778,0)" xlink:href="#H"/><use transform="matrix(0.07407407407407408,0,0,0.07407407407407408,32.592592592592595,0)" xlink:href="#I"/><use transform="matrix(0.07407407407407408,0,0,0.07407407407407408,54.74074074074075,0)" xlink:href="#J"/><use transform="matrix(0.07407407407407408,0,0,0.07407407407407408,69.55555555555557,0)" xlink:href="#K"/><use transform="matrix(0.07407407407407408,0,0,0.07407407407407408,75.40740740740742,0)" xlink:href="#L"/><use transform="matrix(0.07407407407407408,0,0,0.07407407407407408,90.22222222222223,0)" xlink:href="#M"/><use transform="matrix(0.07407407407407408,0,0,0.07407407407407408,97.62962962962962,0)" xlink:href="#P"/><use transform="matrix(0.07407407407407408,0,0,0.07407407407407408,112.44444444444446,0)" xlink:href="#O"/></g><path fill="#3a414a" d="M101-251c82-7 93 87 43 132L82-64C71-53 59-42 53-27h129V0H18c2-99 128-94 128-182 0-28-16-43-45-43s-46 15-49 41l-32-3c6-41 34-60 81-64" id="Q"/><g id="c"><use transform="matrix(0.07407407407407408,0,0,0.07407407407407408,0,0)" xlink:href="#G"/><use transform="matrix(0.07407407407407408,0,0,0.07407407407407408,17.77777777777778,0)" xlink:href="#H"/><use transform="matrix(0.07407407407407408,0,0,0.07407407407407408,32.592592592592595,0)" xlink:href="#I"/><use transform="matrix(0.07407407407407408,0,0,0.07407407407407408,54.74074074074075,0)" xlink:href="#J"/><use transform="matrix(0.07407407407407408,0,0,0.07407407407407408,69.55555555555557,0)" xlink:href="#K"/><use transform="matrix(0.07407407407407408,0,0,0.07407407407407408,75.40740740740742,0)" xlink:href="#L"/><use transform="matrix(0.07407407407407408,0,0,0.07407407407407408,90.22222222222223,0)" xlink:href="#M"/><use transform="matrix(0.07407407407407408,0,0,0.07407407407407408,97.62962962962962,0)" xlink:href="#Q"/><use transform="matrix(0.07407407407407408,0,0,0.07407407407407408,112.44444444444446,0)" xlink:href="#O"/></g><path fill="#3a414a" d="M30-248c87 1 191-15 191 75 0 78-77 80-158 76V0H30v-248zm33 125c57 0 124 11 124-50 0-59-68-47-124-48v98" id="R"/><path fill="#3a414a" d="M114-163C36-179 61-72 57 0H25l-1-190h30c1 12-1 29 2 39 6-27 23-49 58-41v29" id="S"/><path fill="#3a414a" d="M85-194c31 0 48 13 60 33l-1-100h32l1 261h-30c-2-10 0-23-3-31C134-8 116 4 85 4 32 4 16-35 15-94c0-66 23-100 70-100zm9 24c-40 0-46 34-46 75 0 40 6 74 45 74 42 0 51-32 51-76 0-42-9-74-50-73" id="T"/><path fill="#3a414a" d="M24-231v-30h32v30H24zM24 0v-190h32V0H24" id="U"/><path fill="#3a414a" d="M96-169c-40 0-48 33-48 73s9 75 48 75c24 0 41-14 43-38l32 2c-6 37-31 61-74 61-59 0-76-41-82-99-10-93 101-131 147-64 4 7 5 14 7 22l-32 3c-4-21-16-35-41-35" id="V"/><path fill="#3a414a" d="M59-47c-2 24 18 29 38 22v24C64 9 27 4 27-40v-127H5v-23h24l9-43h21v43h35v23H59v120" id="W"/><path fill="#3a414a" d="M100-194c62-1 85 37 85 99 1 63-27 99-86 99S16-35 15-95c0-66 28-99 85-99zM99-20c44 1 53-31 53-75 0-43-8-75-51-75s-53 32-53 75 10 74 51 75" id="X"/><path fill="#3a414a" d="M117-194c89-4 53 116 60 194h-32v-121c0-31-8-49-39-48C34-167 62-67 57 0H25l-1-190h30c1 10-1 24 2 32 11-22 29-35 61-36" id="Y"/><g id="d"><use transform="matrix(0.07407407407407408,0,0,0.07407407407407408,0,0)" xlink:href="#R"/><use transform="matrix(0.07407407407407408,0,0,0.07407407407407408,17.77777777777778,0)" xlink:href="#S"/><use transform="matrix(0.07407407407407408,0,0,0.07407407407407408,26.592592592592595,0)" xlink:href="#L"/><use transform="matrix(0.07407407407407408,0,0,0.07407407407407408,41.40740740740741,0)" xlink:href="#T"/><use transform="matrix(0.07407407407407408,0,0,0.07407407407407408,56.22222222222223,0)" xlink:href="#U"/><use transform="matrix(0.07407407407407408,0,0,0.07407407407407408,62.07407407407408,0)" xlink:href="#V"/><use transform="matrix(0.07407407407407408,0,0,0.07407407407407408,75.40740740740742,0)" xlink:href="#W"/><use transform="matrix(0.07407407407407408,0,0,0.07407407407407408,82.81481481481482,0)" xlink:href="#U"/><use transform="matrix(0.07407407407407408,0,0,0.07407407407407408,88.66666666666667,0)" xlink:href="#X"/><use transform="matrix(0.07407407407407408,0,0,0.07407407407407408,103.4814814814815,0)" xlink:href="#Y"/></g><path fill="#3a414a" d="M33 0v-248h34V0H33" id="Z"/><path fill="#3a414a" d="M84 4C-5 8 30-112 23-190h32v120c0 31 7 50 39 49 72-2 45-101 50-169h31l1 190h-30c-1-10 1-25-2-33-11 22-28 36-60 37" id="aa"/><g id="e"><use transform="matrix(0.07407407407407408,0,0,0.07407407407407408,0,0)" xlink:href="#Z"/><use transform="matrix(0.07407407407407408,0,0,0.07407407407407408,7.407407407407408,0)" xlink:href="#Y"/><use transform="matrix(0.07407407407407408,0,0,0.07407407407407408,22.222222222222225,0)" xlink:href="#J"/><use transform="matrix(0.07407407407407408,0,0,0.07407407407407408,37.03703703703704,0)" xlink:href="#aa"/><use transform="matrix(0.07407407407407408,0,0,0.07407407407407408,51.85185185185186,0)" xlink:href="#W"/></g><path fill="#3a414a" d="M30 0v-248h33v221h125V0H30" id="ab"/><path fill="#3a414a" d="M179-190L93 31C79 59 56 82 12 73V49c39 6 53-20 64-50L1-190h34L92-34l54-156h33" id="ac"/><g id="f"><use transform="matrix(0.07407407407407408,0,0,0.07407407407407408,0,0)" xlink:href="#ab"/><use transform="matrix(0.07407407407407408,0,0,0.07407407407407408,14.814814814814817,0)" xlink:href="#H"/><use transform="matrix(0.07407407407407408,0,0,0.07407407407407408,29.629629629629633,0)" xlink:href="#ac"/><use transform="matrix(0.07407407407407408,0,0,0.07407407407407408,42.96296296296297,0)" xlink:href="#L"/><use transform="matrix(0.07407407407407408,0,0,0.07407407407407408,57.777777777777786,0)" xlink:href="#S"/></g><path fill="#3a414a" d="M197 0v-115H63V0H30v-248h33v105h134v-105h34V0h-34" id="ad"/><g id="g"><use transform="matrix(0.07407407407407408,0,0,0.07407407407407408,0,0)" xlink:href="#ad"/><use transform="matrix(0.07407407407407408,0,0,0.07407407407407408,19.185185185185187,0)" xlink:href="#U"/><use transform="matrix(0.07407407407407408,0,0,0.07407407407407408,25.037037037037035,0)" xlink:href="#T"/><use transform="matrix(0.07407407407407408,0,0,0.07407407407407408,39.851851851851855,0)" xlink:href="#T"/><use transform="matrix(0.07407407407407408,0,0,0.07407407407407408,54.66666666666667,0)" xlink:href="#L"/><use transform="matrix(0.07407407407407408,0,0,0.07407407407407408,69.4814814814815,0)" xlink:href="#Y"/></g><path fill="#3a414a" d="M140-251c81 0 123 46 123 126C263-46 219 4 140 4 59 4 17-45 17-125s42-126 123-126zm0 227c63 0 89-41 89-101s-29-99-89-99c-61 0-89 39-89 99S79-25 140-24" id="ae"/><g id="h"><use transform="matrix(0.07407407407407408,0,0,0.07407407407407408,0,0)" xlink:href="#ae"/><use transform="matrix(0.07407407407407408,0,0,0.07407407407407408,20.740740740740744,0)" xlink:href="#aa"/><use transform="matrix(0.07407407407407408,0,0,0.07407407407407408,35.55555555555556,0)" xlink:href="#W"/><use transform="matrix(0.07407407407407408,0,0,0.07407407407407408,42.96296296296296,0)" xlink:href="#J"/><use transform="matrix(0.07407407407407408,0,0,0.07407407407407408,57.77777777777778,0)" xlink:href="#aa"/><use transform="matrix(0.07407407407407408,0,0,0.07407407407407408,72.5925925925926,0)" xlink:href="#W"/></g><path fill="#3a414a" d="M266 0h-40l-56-210L115 0H75L2-248h35L96-30l15-64 43-154h32l59 218 59-218h35" id="af"/><path fill="#3a414a" d="M177-190C167-65 218 103 67 71c-23-6-38-20-44-43l32-5c15 47 100 32 89-28v-30C133-14 115 1 83 1 29 1 15-40 15-95c0-56 16-97 71-98 29-1 48 16 59 35 1-10 0-23 2-32h30zM94-22c36 0 50-32 50-73 0-42-14-75-50-75-39 0-46 34-46 75s6 73 46 73" id="ag"/><path fill="#3a414a" d="M106-169C34-169 62-67 57 0H25v-261h32l-1 103c12-21 28-36 61-36 89 0 53 116 60 194h-32v-121c2-32-8-49-39-48" id="ah"/><path fill="#3a414a" d="M135-143c-3-34-86-38-87 0 15 53 115 12 119 90S17 21 10-45l28-5c4 36 97 45 98 0-10-56-113-15-118-90-4-57 82-63 122-42 12 7 21 19 24 35" id="ai"/><g id="i"><use transform="matrix(0.07407407407407408,0,0,0.07407407407407408,0,0)" xlink:href="#af"/><use transform="matrix(0.07407407407407408,0,0,0.07407407407407408,24.592592592592595,0)" xlink:href="#L"/><use transform="matrix(0.07407407407407408,0,0,0.07407407407407408,39.40740740740741,0)" xlink:href="#U"/><use transform="matrix(0.07407407407407408,0,0,0.07407407407407408,45.25925925925927,0)" xlink:href="#ag"/><use transform="matrix(0.07407407407407408,0,0,0.07407407407407408,60.07407407407408,0)" xlink:href="#ah"/><use transform="matrix(0.07407407407407408,0,0,0.07407407407407408,74.8888888888889,0)" xlink:href="#W"/><use transform="matrix(0.07407407407407408,0,0,0.07407407407407408,82.2962962962963,0)" xlink:href="#ai"/></g><path fill="#3a414a" d="M127-220V0H93v-220H8v-28h204v28h-85" id="aj"/><g id="j"><use transform="matrix(0.07407407407407408,0,0,0.07407407407407408,0,0)" xlink:href="#aj"/><use transform="matrix(0.07407407407407408,0,0,0.07407407407407408,13.259259259259261,0)" xlink:href="#L"/><use transform="matrix(0.07407407407407408,0,0,0.07407407407407408,28.074074074074076,0)" xlink:href="#Y"/><use transform="matrix(0.07407407407407408,0,0,0.07407407407407408,42.88888888888889,0)" xlink:href="#ai"/><use transform="matrix(0.07407407407407408,0,0,0.07407407407407408,56.22222222222223,0)" xlink:href="#X"/><use transform="matrix(0.07407407407407408,0,0,0.07407407407407408,71.03703703703704,0)" xlink:href="#S"/></g><path fill="#3a414a" d="M240 0l2-218c-23 76-54 145-80 218h-23L58-218 59 0H30v-248h44l77 211c21-75 51-140 76-211h43V0h-30" id="ak"/><path fill="#3a414a" d="M141 0L90-78 38 0H4l68-98-65-92h35l48 74 47-74h35l-64 92 68 98h-35" id="al"/><g id="k"><use transform="matrix(0.07407407407407408,0,0,0.07407407407407408,0,0)" xlink:href="#ak"/><use transform="matrix(0.07407407407407408,0,0,0.07407407407407408,22.148148148148152,0)" xlink:href="#H"/><use transform="matrix(0.07407407407407408,0,0,0.07407407407407408,36.96296296296297,0)" xlink:href="#W"/><use transform="matrix(0.07407407407407408,0,0,0.07407407407407408,44.37037037037039,0)" xlink:href="#S"/><use transform="matrix(0.07407407407407408,0,0,0.07407407407407408,53.1851851851852,0)" xlink:href="#U"/><use transform="matrix(0.07407407407407408,0,0,0.07407407407407408,59.03703703703705,0)" xlink:href="#al"/></g><path fill="#3a414a" d="M126-127c33 6 58 20 58 59 0 88-139 92-164 29-3-8-5-16-6-25l32-3c6 27 21 44 54 44 32 0 52-15 52-46 0-38-36-46-79-43v-28c39 1 72-4 72-42 0-27-17-43-46-43-28 0-47 15-49 41l-32-3c6-42 35-63 81-64 48-1 79 21 79 65 0 36-21 52-52 59" id="am"/><path fill="#3a414a" d="M68-38c1 34 0 65-14 84H32c9-13 17-26 17-46H33v-38h35" id="an"/><g id="l"><use transform="matrix(0.07407407407407408,0,0,0.07407407407407408,0,0)" xlink:href="#M"/><use transform="matrix(0.07407407407407408,0,0,0.07407407407407408,7.407407407407408,0)" xlink:href="#am"/><use transform="matrix(0.07407407407407408,0,0,0.07407407407407408,22.222222222222225,0)" xlink:href="#an"/></g><path fill="#3a414a" d="M155-56V0h-30v-56H8v-25l114-167h33v167h35v25h-35zm-30-156c-27 46-58 90-88 131h88v-131" id="ao"/><g id="m"><use transform="matrix(0.07407407407407408,0,0,0.07407407407407408,0,0)" xlink:href="#ao"/><use transform="matrix(0.07407407407407408,0,0,0.07407407407407408,14.814814814814817,0)" xlink:href="#O"/></g><g id="n"><use transform="matrix(0.07407407407407408,0,0,0.07407407407407408,0,0)" xlink:href="#M"/><use transform="matrix(0.07407407407407408,0,0,0.07407407407407408,7.407407407407408,0)" xlink:href="#ao"/><use transform="matrix(0.07407407407407408,0,0,0.07407407407407408,22.222222222222225,0)" xlink:href="#an"/></g><g id="o"><use transform="matrix(0.07407407407407408,0,0,0.07407407407407408,0,0)" xlink:href="#P"/><use transform="matrix(0.07407407407407408,0,0,0.07407407407407408,14.814814814814817,0)" xlink:href="#O"/></g><g id="p"><use transform="matrix(0.07407407407407408,0,0,0.07407407407407408,0,0)" xlink:href="#aj"/><use transform="matrix(0.07407407407407408,0,0,0.07407407407407408,15.259259259259261,0)" xlink:href="#S"/><use transform="matrix(0.07407407407407408,0,0,0.07407407407407408,24.074074074074076,0)" xlink:href="#H"/><use transform="matrix(0.07407407407407408,0,0,0.07407407407407408,38.88888888888889,0)" xlink:href="#U"/><use transform="matrix(0.07407407407407408,0,0,0.07407407407407408,44.74074074074075,0)" xlink:href="#Y"/><use transform="matrix(0.07407407407407408,0,0,0.07407407407407408,59.555555555555564,0)" xlink:href="#U"/><use transform="matrix(0.07407407407407408,0,0,0.07407407407407408,65.40740740740742,0)" xlink:href="#Y"/><use transform="matrix(0.07407407407407408,0,0,0.07407407407407408,80.22222222222223,0)" xlink:href="#ag"/><use transform="matrix(0.07407407407407408,0,0,0.07407407407407408,95.03703703703704,0)" xlink:href="#Z"/><use transform="matrix(0.07407407407407408,0,0,0.07407407407407408,102.44444444444444,0)" xlink:href="#Y"/><use transform="matrix(0.07407407407407408,0,0,0.07407407407407408,117.25925925925928,0)" xlink:href="#J"/><use transform="matrix(0.07407407407407408,0,0,0.07407407407407408,132.07407407407408,0)" xlink:href="#aa"/><use transform="matrix(0.07407407407407408,0,0,0.07407407407407408,146.88888888888889,0)" xlink:href="#W"/></g><path fill="#3a414a" d="M190 0L58-211 59 0H30v-248h39L202-35l-2-213h31V0h-41" id="ap"/><g id="q"><use transform="matrix(0.07407407407407408,0,0,0.07407407407407408,0,0)" xlink:href="#M"/><use transform="matrix(0.07407407407407408,0,0,0.07407407407407408,7.407407407407408,0)" xlink:href="#ap"/><use transform="matrix(0.07407407407407408,0,0,0.07407407407407408,26.592592592592595,0)" xlink:href="#an"/></g><g id="r"><use transform="matrix(0.07407407407407408,0,0,0.07407407407407408,0,0)" xlink:href="#am"/><use transform="matrix(0.07407407407407408,0,0,0.07407407407407408,14.814814814814817,0)" xlink:href="#O"/></g><g id="s"><use transform="matrix(0.07407407407407408,0,0,0.07407407407407408,0,0)" xlink:href="#aj"/><use transform="matrix(0.07407407407407408,0,0,0.07407407407407408,15.259259259259261,0)" xlink:href="#S"/><use transform="matrix(0.07407407407407408,0,0,0.07407407407407408,24.074074074074076,0)" xlink:href="#H"/><use transform="matrix(0.07407407407407408,0,0,0.07407407407407408,38.88888888888889,0)" xlink:href="#U"/><use transform="matrix(0.07407407407407408,0,0,0.07407407407407408,44.74074074074075,0)" xlink:href="#Y"/><use transform="matrix(0.07407407407407408,0,0,0.07407407407407408,59.555555555555564,0)" xlink:href="#U"/><use transform="matrix(0.07407407407407408,0,0,0.07407407407407408,65.40740740740742,0)" xlink:href="#Y"/><use transform="matrix(0.07407407407407408,0,0,0.07407407407407408,80.22222222222223,0)" xlink:href="#ag"/><use transform="matrix(0.07407407407407408,0,0,0.07407407407407408,95.03703703703704,0)" xlink:href="#Z"/><use transform="matrix(0.07407407407407408,0,0,0.07407407407407408,102.44444444444444,0)" xlink:href="#Y"/><use transform="matrix(0.07407407407407408,0,0,0.07407407407407408,117.25925925925928,0)" xlink:href="#J"/><use transform="matrix(0.07407407407407408,0,0,0.07407407407407408,132.07407407407408,0)" xlink:href="#aa"/><use transform="matrix(0.07407407407407408,0,0,0.07407407407407408,146.88888888888889,0)" xlink:href="#W"/><use transform="matrix(0.07407407407407408,0,0,0.07407407407407408,154.2962962962963,0)" xlink:href="#M"/><use transform="matrix(0.07407407407407408,0,0,0.07407407407407408,161.70370370370372,0)" xlink:href="#U"/><use transform="matrix(0.07407407407407408,0,0,0.07407407407407408,167.55555555555557,0)" xlink:href="#O"/></g><path fill="#3a414a" d="M137 0h-34L2-248h35l83 218 83-218h36" id="aq"/><g id="t"><use transform="matrix(0.07407407407407408,0,0,0.07407407407407408,0,0)" xlink:href="#aq"/><use transform="matrix(0.07407407407407408,0,0,0.07407407407407408,16.296296296296298,0)" xlink:href="#L"/><use transform="matrix(0.07407407407407408,0,0,0.07407407407407408,31.111111111111114,0)" xlink:href="#V"/><use transform="matrix(0.07407407407407408,0,0,0.07407407407407408,44.44444444444445,0)" xlink:href="#W"/><use transform="matrix(0.07407407407407408,0,0,0.07407407407407408,51.85185185185186,0)" xlink:href="#X"/><use transform="matrix(0.07407407407407408,0,0,0.07407407407407408,66.66666666666669,0)" xlink:href="#S"/></g><g id="u"><use transform="matrix(0.07407407407407408,0,0,0.07407407407407408,0,0)" xlink:href="#M"/><use transform="matrix(0.07407407407407408,0,0,0.07407407407407408,7.407407407407408,0)" xlink:href="#am"/><use transform="matrix(0.07407407407407408,0,0,0.07407407407407408,22.222222222222225,0)" xlink:href="#O"/></g><g id="v"><use transform="matrix(0.07407407407407408,0,0,0.07407407407407408,0,0)" xlink:href="#ab"/><use transform="matrix(0.07407407407407408,0,0,0.07407407407407408,14.814814814814817,0)" xlink:href="#X"/><use transform="matrix(0.07407407407407408,0,0,0.07407407407407408,29.629629629629633,0)" xlink:href="#ai"/><use transform="matrix(0.07407407407407408,0,0,0.07407407407407408,42.96296296296297,0)" xlink:href="#ai"/></g><g id="w"><use transform="matrix(0.07407407407407408,0,0,0.07407407407407408,0,0)" xlink:href="#aj"/><use transform="matrix(0.07407407407407408,0,0,0.07407407407407408,15.259259259259261,0)" xlink:href="#S"/><use transform="matrix(0.07407407407407408,0,0,0.07407407407407408,24.074074074074076,0)" xlink:href="#H"/><use transform="matrix(0.07407407407407408,0,0,0.07407407407407408,38.88888888888889,0)" xlink:href="#U"/><use transform="matrix(0.07407407407407408,0,0,0.07407407407407408,44.74074074074075,0)" xlink:href="#Y"/><use transform="matrix(0.07407407407407408,0,0,0.07407407407407408,59.555555555555564,0)" xlink:href="#U"/><use transform="matrix(0.07407407407407408,0,0,0.07407407407407408,65.40740740740742,0)" xlink:href="#Y"/><use transform="matrix(0.07407407407407408,0,0,0.07407407407407408,80.22222222222223,0)" xlink:href="#ag"/></g><path fill="#3a414a" d="M115-194c53 0 69 39 70 98 0 66-23 100-70 100C84 3 66-7 56-30L54 0H23l1-261h32v101c10-23 28-34 59-34zm-8 174c40 0 45-34 45-75 0-40-5-75-45-74-42 0-51 32-51 76 0 43 10 73 51 73" id="ar"/><g id="x"><use transform="matrix(0.07407407407407408,0,0,0.07407407407407408,0,0)" xlink:href="#ab"/><use transform="matrix(0.07407407407407408,0,0,0.07407407407407408,14.814814814814817,0)" xlink:href="#H"/><use transform="matrix(0.07407407407407408,0,0,0.07407407407407408,29.629629629629633,0)" xlink:href="#ar"/><use transform="matrix(0.07407407407407408,0,0,0.07407407407407408,44.44444444444445,0)" xlink:href="#L"/><use transform="matrix(0.07407407407407408,0,0,0.07407407407407408,59.25925925925927,0)" xlink:href="#K"/><use transform="matrix(0.07407407407407408,0,0,0.07407407407407408,65.11111111111111,0)" xlink:href="#ai"/><use transform="matrix(0.07407407407407408,0,0,0.07407407407407408,78.44444444444446,0)" xlink:href="#M"/><use transform="matrix(0.07407407407407408,0,0,0.07407407407407408,85.85185185185186,0)" xlink:href="#U"/><use transform="matrix(0.07407407407407408,0,0,0.07407407407407408,91.70370370370371,0)" xlink:href="#O"/></g><path fill="#3a414a" d="M30 0v-248h187v28H63v79h144v27H63v87h162V0H30" id="as"/><g id="y"><use transform="matrix(0.08641975308641976,0,0,0.08641975308641976,0,0)" xlink:href="#as"/><use transform="matrix(0.08641975308641976,0,0,0.08641975308641976,20.740740740740744,0)" xlink:href="#J"/><use transform="matrix(0.08641975308641976,0,0,0.08641975308641976,38.0246913580247,0)" xlink:href="#X"/><use transform="matrix(0.08641975308641976,0,0,0.08641975308641976,55.308641975308646,0)" xlink:href="#V"/><use transform="matrix(0.08641975308641976,0,0,0.08641975308641976,70.8641975308642,0)" xlink:href="#ah"/></g><use transform="matrix(0.08641975308641976,0,0,0.08641975308641976,0,0)" xlink:href="#al" id="z"/><g id="A"><use transform="matrix(0.08641975308641976,0,0,0.08641975308641976,0,0)" xlink:href="#Z"/><use transform="matrix(0.08641975308641976,0,0,0.08641975308641976,8.641975308641976,0)" xlink:href="#W"/><use transform="matrix(0.08641975308641976,0,0,0.08641975308641976,17.283950617283953,0)" xlink:href="#L"/><use transform="matrix(0.08641975308641976,0,0,0.08641975308641976,34.567901234567906,0)" xlink:href="#S"/><use transform="matrix(0.08641975308641976,0,0,0.08641975308641976,44.851851851851855,0)" xlink:href="#H"/><use transform="matrix(0.08641975308641976,0,0,0.08641975308641976,62.13580246913581,0)" xlink:href="#W"/><use transform="matrix(0.08641975308641976,0,0,0.08641975308641976,70.77777777777779,0)" xlink:href="#U"/><use transform="matrix(0.08641975308641976,0,0,0.08641975308641976,77.60493827160495,0)" xlink:href="#X"/><use transform="matrix(0.08641975308641976,0,0,0.08641975308641976,94.8888888888889,0)" xlink:href="#Y"/></g><use transform="matrix(0.08641975308641976,0,0,0.08641975308641976,0,0)" xlink:href="#U" id="B"/><path fill="#3a414a" d="M143 4C61 4 22-44 18-125c-5-107 100-154 193-111 17 8 29 25 37 43l-32 9c-13-25-37-40-76-40-61 0-88 39-88 99 0 61 29 100 91 101 35 0 62-11 79-27v-45h-74v-28h105v86C228-13 192 4 143 4" id="at"/><g id="C"><use transform="matrix(0.07407407407407408,0,0,0.07407407407407408,0,0)" xlink:href="#at"/><use transform="matrix(0.07407407407407408,0,0,0.07407407407407408,20.740740740740744,0)" xlink:href="#S"/><use transform="matrix(0.07407407407407408,0,0,0.07407407407407408,29.55555555555556,0)" xlink:href="#H"/><use transform="matrix(0.07407407407407408,0,0,0.07407407407407408,44.37037037037039,0)" xlink:href="#T"/><use transform="matrix(0.07407407407407408,0,0,0.07407407407407408,59.185185185185205,0)" xlink:href="#U"/><use transform="matrix(0.07407407407407408,0,0,0.07407407407407408,65.03703703703705,0)" xlink:href="#L"/><use transform="matrix(0.07407407407407408,0,0,0.07407407407407408,79.85185185185188,0)" xlink:href="#Y"/><use transform="matrix(0.07407407407407408,0,0,0.07407407407407408,94.66666666666669,0)" xlink:href="#W"/><use transform="matrix(0.07407407407407408,0,0,0.07407407407407408,102.07407407407409,0)" xlink:href="#ai"/></g><g id="D"><use transform="matrix(0.07407407407407408,0,0,0.07407407407407408,0,0)" xlink:href="#M"/><use transform="matrix(0.07407407407407408,0,0,0.07407407407407408,7.407407407407408,0)" xlink:href="#P"/><use transform="matrix(0.07407407407407408,0,0,0.07407407407407408,22.222222222222225,0)" xlink:href="#an"/></g><path fill="#3a414a" d="M160-131c35 5 61 23 61 61C221 17 115-2 30 0v-248c76 3 177-17 177 60 0 33-19 50-47 57zm-97-11c50-1 110 9 110-42 0-47-63-36-110-37v79zm0 115c55-2 124 14 124-45 0-56-70-42-124-44v89" id="au"/><path fill="#3a414a" d="M143 0L79-87 56-68V0H24v-261h32v163l83-92h37l-77 82L181 0h-38" id="av"/><g id="E"><use transform="matrix(0.07407407407407408,0,0,0.07407407407407408,0,0)" xlink:href="#au"/><use transform="matrix(0.07407407407407408,0,0,0.07407407407407408,17.77777777777778,0)" xlink:href="#H"/><use transform="matrix(0.07407407407407408,0,0,0.07407407407407408,32.592592592592595,0)" xlink:href="#V"/><use transform="matrix(0.07407407407407408,0,0,0.07407407407407408,45.92592592592593,0)" xlink:href="#av"/></g><g id="F"><use transform="matrix(0.07407407407407408,0,0,0.07407407407407408,0,0)" xlink:href="#R"/><use transform="matrix(0.07407407407407408,0,0,0.07407407407407408,17.77777777777778,0)" xlink:href="#S"/><use transform="matrix(0.07407407407407408,0,0,0.07407407407407408,26.592592592592595,0)" xlink:href="#X"/><use transform="matrix(0.07407407407407408,0,0,0.07407407407407408,41.40740740740741,0)" xlink:href="#J"/><use transform="matrix(0.07407407407407408,0,0,0.07407407407407408,56.22222222222223,0)" xlink:href="#H"/><use transform="matrix(0.07407407407407408,0,0,0.07407407407407408,71.03703703703704,0)" xlink:href="#ag"/><use transform="matrix(0.07407407407407408,0,0,0.07407407407407408,85.85185185185185,0)" xlink:href="#H"/><use transform="matrix(0.07407407407407408,0,0,0.07407407407407408,100.66666666666666,0)" xlink:href="#W"/><use transform="matrix(0.07407407407407408,0,0,0.07407407407407408,108.07407407407405,0)" xlink:href="#U"/><use transform="matrix(0.07407407407407408,0,0,0.07407407407407408,113.92592592592591,0)" xlink:href="#X"/><use transform="matrix(0.07407407407407408,0,0,0.07407407407407408,128.74074074074073,0)" xlink:href="#Y"/></g></defs></g></svg>